<svg width="667" height="303" viewBox="0 0 667 303" fill="none" xmlns="http://www.w3.org/2000/svg">
<path d="M20.1843 31.5521H25.7976V39.4362C24.0464 39.999 21.8347 40.3076 19.5358 40.3076C10.219 40.3076 4.74351 32.329 4.74351 24.5374C4.74351 16.895 9.69638 11.5344 16.6067 11.5344C20.9795 11.5344 23.5238 13.0156 25.7997 15.0791V17.6516L30.0676 13.3837C27.3682 11.5574 23.4591 9.82129 17.8718 9.82129C5.60605 9.82129 0 18.5961 0 25.8077C0 36.0721 7.47631 42.2556 16.8719 42.2556C21.4275 42.2556 25.4724 41.5602 30.1448 40.2601V32.1144C30.1448 31.6978 30.3276 31.4122 30.6017 31.161L32.0762 29.6866H22.0639L20.1843 31.5521Z" fill="#A7B1B9"/>
<path d="M45.3302 20.8379C38.2706 20.8379 33.8962 25.9965 33.8962 31.4726C33.8962 36.1988 37.4201 41.8106 44.5601 41.8106C51.4281 41.8106 55.6422 36.6416 55.6422 31.07C55.6422 25.8801 51.5242 20.84 45.3302 20.84V20.8379ZM44.1591 22.3422C49.1365 22.3422 51.3529 28.827 51.3529 33.4525C51.3529 40.3309 46.1928 40.4672 45.5756 40.4672C43.2141 40.4672 41.5636 39.0402 40.3283 37.1679C39.2407 35.4428 38.1777 32.2375 38.1777 29.1058C38.1777 25.9861 39.1989 24.463 40.8055 23.3426C42.1197 22.5025 43.3498 22.3422 44.1565 22.3422H44.1591Z" fill="#A7B1B9"/>
<path d="M91.4809 20.8362C85.3146 20.8362 81.9793 24.7401 81.9793 29.0988C81.9793 32.4169 84.3565 36.1605 89.2603 36.1605H90.5009C90.5009 36.1605 90.1631 36.9813 90.161 37.7744C90.161 38.944 90.5808 39.6008 91.4731 40.6116C83.0345 41.1259 79.6433 44.5291 79.6433 48.1876C79.6433 51.3909 82.7108 54.5435 89.1569 54.5435C96.7883 54.5435 100.741 50.3064 100.741 46.1487C100.741 43.2175 99.2809 41.6104 95.5827 38.8395C94.4951 37.9942 94.2842 37.4559 94.2842 36.8231C94.2842 35.9167 94.8262 35.3173 95.0251 35.0907C95.3754 34.721 95.9816 34.2997 96.2082 34.0971C97.4509 33.0445 99.2057 31.4865 99.2057 28.3772C99.2057 26.2443 98.3187 24.409 96.297 22.6907H98.7645L100.619 20.8367L91.4809 20.8362ZM89.7798 22.2234C90.8988 22.2234 91.8328 22.6192 92.8191 23.44C93.9135 24.4263 95.6616 27.0771 95.6616 30.3571C95.6616 33.8966 92.9115 34.8656 91.423 34.8656C90.6946 34.8656 89.8216 34.6615 89.0823 34.1561C87.4407 33.0915 85.8112 30.2574 85.8112 26.8855C85.8112 23.8425 87.624 22.2234 89.7798 22.2234ZM92.2213 41.955C92.6917 41.955 93.0301 41.9937 93.0301 41.9937C93.0301 41.9937 94.1401 42.7868 94.916 43.3789C96.7215 44.8064 97.8472 45.8971 97.8472 47.8404C97.8472 50.5121 95.3692 52.6069 91.3556 52.6069C86.9499 52.6069 83.5827 50.5555 83.5827 47.206C83.5822 44.4315 85.89 42.0438 92.2213 41.955Z" fill="#A7B1B9"/>
<path d="M101.955 41.1987H110.42L111.709 39.909L109.281 39.6056C108.628 39.5252 108.239 38.9608 108.239 38.4136V12.8457C108.239 12.3419 108.473 12.0839 108.643 11.92L110.17 10.3933H102.952L101.073 12.2719H103.879V38.7567C103.879 39.1331 103.76 39.3895 103.506 39.6526L101.955 41.1987Z" fill="#A7B1B9"/>
<path d="M121.888 20.8377C117.162 20.8377 112.141 24.4398 112.141 30.9073C112.141 36.2487 115.744 41.8098 122.474 41.8098C124.152 41.8098 125.534 41.5937 126.829 40.9995C128.218 40.3599 129.555 39.3214 130.531 38.0161C128.689 38.9449 127.186 39.5548 125.191 39.5548C121.399 39.5548 117.742 36.8188 116.463 31.7892L129.86 26.3743C129.086 23.6154 126.904 20.8371 121.89 20.8371H121.888V20.8377ZM121.013 22.3174C123.549 22.3174 125.382 24.4032 125.382 26.0364C125.382 26.5643 125.051 26.8431 124.396 27.1011L116.162 30.4317C116.162 30.4317 115.939 29.3948 115.939 28.2743C115.938 23.5741 119.337 22.3174 121.013 22.3174Z" fill="#A7B1B9"/>
<path d="M69.2865 20.8379C62.2269 20.8379 57.8525 25.9965 57.8525 31.4726C57.8525 36.1988 61.3764 41.8106 68.5164 41.8106C75.3844 41.8106 79.5985 36.6416 79.5985 31.07C79.5985 25.8801 75.4805 20.84 69.2865 20.84V20.8379ZM68.1154 22.3422C73.0928 22.3422 75.3092 28.827 75.3092 33.4525C75.3092 40.3309 70.1491 40.4672 69.5319 40.4672C67.1704 40.4672 65.5199 39.0402 64.2846 37.1679C63.197 35.4428 62.134 32.2375 62.134 29.1058C62.134 25.9861 63.1552 24.463 64.7618 23.3426C66.076 22.5025 67.3061 22.3422 68.1128 22.3422H68.1154Z" fill="#A7B1B9"/>
<path d="M218.178 27.7569C218.251 35.6383 225.113 38.261 225.189 38.2944C225.131 38.4792 224.092 42.0319 221.574 45.7015C219.396 48.8742 217.137 52.0351 213.577 52.1005C210.079 52.1648 208.954 50.0327 204.955 50.0327C200.957 50.0327 199.707 52.0351 196.396 52.1649C192.96 52.2946 190.343 48.7342 188.148 45.5732C183.662 39.1073 180.234 27.3022 184.837 19.3336C187.124 15.3763 191.211 12.8704 195.646 12.8061C199.021 12.742 202.205 15.0692 204.268 15.0692C206.33 15.0692 210.2 12.2705 214.269 12.6815C215.972 12.7522 220.753 13.3674 223.823 17.8475C223.576 18.0004 218.118 21.1678 218.178 27.7569ZM211.604 8.4038C213.428 6.20235 214.656 3.13774 214.321 0.0884705C211.691 0.193833 208.512 1.83536 206.625 4.0356C204.935 5.984 203.455 9.10256 203.854 12.0915C206.785 12.3175 209.779 10.6066 211.604 8.4038Z" fill="#A7B1B9"/>
<path d="M358.464 20.6278H349.181C348.874 20.6276 348.576 20.7373 348.343 20.9372C348.109 21.1371 347.954 21.4139 347.906 21.7179L344.152 45.556C344.135 45.6666 344.141 45.7797 344.172 45.8874C344.203 45.9951 344.256 46.0948 344.329 46.1798C344.402 46.2648 344.492 46.3331 344.594 46.3798C344.695 46.4265 344.806 46.4506 344.917 46.4504H349.349C349.657 46.4506 349.954 46.3406 350.188 46.1405C350.422 45.9403 350.576 45.6631 350.624 45.3589L351.636 38.9294C351.684 38.6254 351.838 38.3484 352.072 38.1482C352.305 37.9481 352.602 37.8381 352.91 37.8379H355.848C361.963 37.8379 365.493 34.8746 366.414 29.0024C366.83 26.4333 366.432 24.4148 365.231 23.0011C363.911 21.4488 361.571 20.6278 358.464 20.6278ZM359.535 29.3341C359.027 32.6698 356.482 32.6698 354.021 32.6698H352.621L353.603 26.4401C353.632 26.2579 353.725 26.0919 353.865 25.972C354.005 25.8522 354.183 25.7863 354.368 25.7863H355.01C356.686 25.7863 358.267 25.7863 359.084 26.7433C359.572 27.3142 359.721 28.1624 359.535 29.3341ZM386.213 29.2267H381.768C381.583 29.2267 381.405 29.2926 381.265 29.4124C381.125 29.5323 381.032 29.6983 381.003 29.8805L380.807 31.1257L380.496 30.6744C379.533 29.2756 377.387 28.808 375.245 28.808C370.333 28.808 366.137 32.5339 365.32 37.7604C364.895 40.3675 365.499 42.8605 366.976 44.599C368.331 46.1976 370.269 46.8636 372.575 46.8636C376.534 46.8636 378.728 44.3149 378.728 44.3149L378.53 45.5519C378.513 45.6625 378.519 45.7756 378.549 45.8835C378.58 45.9913 378.633 46.0913 378.705 46.1766C378.778 46.2618 378.868 46.3304 378.969 46.3774C379.071 46.4244 379.181 46.4489 379.293 46.4491H383.297C383.605 46.4492 383.902 46.3393 384.136 46.1391C384.37 45.939 384.524 45.6618 384.572 45.3575L386.975 30.1211C386.992 30.0108 386.986 29.8979 386.956 29.7903C386.926 29.6827 386.872 29.5829 386.8 29.4979C386.728 29.4128 386.638 29.3445 386.536 29.2977C386.435 29.2509 386.325 29.2267 386.213 29.2267ZM380.017 37.8909C379.588 40.4341 377.572 42.1414 375.001 42.1414C373.71 42.1414 372.679 41.7268 372.016 40.9412C371.359 40.1609 371.11 39.0504 371.319 37.8134C371.719 35.2919 373.769 33.5289 376.3 33.5289C377.563 33.5289 378.589 33.9489 379.265 34.7414C379.942 35.542 380.211 36.6594 380.017 37.8909ZM409.889 29.2267H405.421C405.211 29.227 405.003 29.2788 404.817 29.3776C404.631 29.4764 404.472 29.6192 404.353 29.7935L398.192 38.8818L395.58 30.1483C395.5 29.882 395.337 29.6485 395.114 29.4825C394.891 29.3165 394.62 29.2268 394.342 29.2267H389.953C389.829 29.2264 389.708 29.2555 389.598 29.3117C389.489 29.3679 389.394 29.4496 389.322 29.5498C389.25 29.6501 389.203 29.7661 389.185 29.8881C389.167 30.0102 389.179 30.1348 389.218 30.2516L394.139 44.7119L389.513 51.2515C389.431 51.3674 389.382 51.5038 389.372 51.6456C389.362 51.7875 389.391 51.9293 389.456 52.0557C389.522 52.182 389.62 52.288 389.742 52.3619C389.863 52.4358 390.002 52.4749 390.144 52.4748H394.606C394.814 52.4751 395.019 52.4248 395.204 52.3282C395.389 52.2316 395.547 52.0916 395.666 51.9202L410.524 30.4433C410.604 30.3271 410.652 30.191 410.66 30.0499C410.669 29.9087 410.639 29.7678 410.574 29.6425C410.508 29.5172 410.41 29.4121 410.289 29.3389C410.168 29.2656 410.03 29.2268 409.889 29.2267Z" fill="#A7B1B9"/>
<path d="M424.679 20.6276H415.394C415.087 20.6277 414.79 20.7376 414.557 20.9375C414.323 21.1373 414.169 21.414 414.121 21.7178L410.366 45.5558C410.349 45.6662 410.356 45.7791 410.386 45.8867C410.416 45.9943 410.469 46.0941 410.542 46.1791C410.615 46.2641 410.705 46.3324 410.806 46.3792C410.907 46.426 411.018 46.4502 411.129 46.4502H415.894C416.109 46.4499 416.316 46.3728 416.48 46.2328C416.643 46.0927 416.751 45.899 416.784 45.6863L417.85 38.9292C417.897 38.6252 418.052 38.3482 418.285 38.1481C418.519 37.948 418.816 37.8379 419.123 37.8377H422.06C428.177 37.8377 431.705 34.8744 432.628 29.0023C433.044 26.4332 432.644 24.4146 431.443 23.0009C430.125 21.4486 427.786 20.6276 424.679 20.6276ZM425.75 29.3339C425.243 32.6696 422.698 32.6696 420.236 32.6696H418.837L419.821 26.44C419.849 26.2577 419.941 26.0916 420.081 25.9717C420.221 25.8517 420.399 25.7859 420.583 25.7862H421.226C422.901 25.7862 424.483 25.7862 425.3 26.7431C425.788 27.314 425.936 28.1622 425.75 29.3339ZM452.426 29.2265H447.984C447.799 29.226 447.621 29.2917 447.481 29.4117C447.341 29.5317 447.249 29.698 447.221 29.8804L447.024 31.1255L446.712 30.6742C445.749 29.2755 443.605 28.8079 441.463 28.8079C436.55 28.8079 432.356 32.5337 431.539 37.7602C431.115 40.3674 431.717 42.8603 433.194 44.5989C434.551 46.1974 436.487 46.8635 438.793 46.8635C442.751 46.8635 444.946 44.3148 444.946 44.3148L444.748 45.5517C444.73 45.6625 444.736 45.7759 444.767 45.8839C444.797 45.992 444.851 46.0921 444.923 46.1774C444.996 46.2627 445.087 46.3312 445.188 46.3781C445.29 46.4249 445.401 46.4491 445.513 46.4489H449.516C449.823 46.4487 450.121 46.3386 450.354 46.1385C450.587 45.9384 450.742 45.6614 450.789 45.3574L453.193 30.121C453.21 30.0103 453.203 29.8972 453.172 29.7895C453.142 29.6818 453.088 29.582 453.015 29.4971C452.942 29.4121 452.852 29.3439 452.75 29.2972C452.649 29.2505 452.538 29.2264 452.426 29.2265ZM446.23 37.8907C445.804 40.434 443.785 42.1413 441.214 42.1413C439.926 42.1413 438.892 41.7267 438.229 40.941C437.572 40.1608 437.325 39.0502 437.532 37.8132C437.935 35.2917 439.982 33.5287 442.513 33.5287C443.776 33.5287 444.802 33.9487 445.478 34.7412C446.158 35.5418 446.427 36.6592 446.23 37.8907ZM457.667 21.2814L453.857 45.5558C453.84 45.6662 453.846 45.7791 453.877 45.8867C453.907 45.9943 453.96 46.0941 454.033 46.1791C454.105 46.2641 454.195 46.3324 454.297 46.3792C454.398 46.426 454.508 46.4502 454.62 46.4502H458.45C459.087 46.4502 459.627 45.9881 459.725 45.3587L463.482 21.522C463.5 21.4115 463.493 21.2986 463.463 21.1909C463.432 21.0832 463.379 20.9834 463.307 20.8983C463.234 20.8132 463.144 20.7448 463.043 20.6978C462.941 20.6509 462.831 20.6264 462.719 20.6263H458.43C458.246 20.6269 458.068 20.6932 457.928 20.8132C457.788 20.9333 457.696 21.0993 457.667 21.2814Z" fill="#A7B1B9"/>
<path d="M305.601 51.0829L306.311 46.5673L304.729 46.5306H297.178L302.426 13.21C302.441 13.1082 302.493 13.0154 302.571 12.9486C302.65 12.8817 302.749 12.8452 302.852 12.8457H315.584C319.811 12.8457 322.728 13.7266 324.251 15.4651C324.965 16.2807 325.42 17.133 325.64 18.0709C325.871 19.055 325.875 20.2308 325.649 21.6649L325.633 21.7695V22.6884L326.347 23.0935C326.892 23.37 327.382 23.7441 327.793 24.1973C328.403 24.8946 328.798 25.7808 328.965 26.8316C329.138 27.9122 329.081 29.1981 328.798 30.6539C328.473 32.3286 327.946 33.7871 327.235 34.9806C326.607 36.0497 325.763 36.9757 324.758 37.6992C323.813 38.3707 322.69 38.8804 321.421 39.2067C320.191 39.5275 318.789 39.6892 317.251 39.6892H316.26C315.552 39.6892 314.864 39.9448 314.323 40.4028C313.784 40.8658 313.426 41.5055 313.313 42.208L313.239 42.6144L311.985 50.5731L311.928 50.8654C311.913 50.9578 311.887 51.004 311.849 51.0353C311.812 51.0654 311.766 51.0822 311.719 51.0829H305.601Z" fill="#A7B1B9"/>
<path d="M327.023 21.8754C326.985 22.1187 326.942 22.3675 326.893 22.623C325.214 31.2559 319.469 34.2382 312.133 34.2382H308.397C307.5 34.2382 306.744 34.8907 306.604 35.777L304.692 47.9237L304.15 51.3668C304.128 51.5034 304.137 51.643 304.174 51.7761C304.212 51.9092 304.277 52.0325 304.367 52.1377C304.457 52.2429 304.568 52.3273 304.693 52.3852C304.819 52.4432 304.955 52.4732 305.093 52.4733H311.719C312.503 52.4733 313.17 51.9024 313.293 51.1276L313.358 50.7905L314.606 42.863L314.686 42.428C314.808 41.6505 315.476 41.0796 316.261 41.0796H317.251C323.67 41.0796 328.695 38.4697 330.164 30.9175C330.778 27.7625 330.46 25.1282 328.837 23.2755C328.322 22.7023 327.708 22.2279 327.023 21.8754Z" fill="#A7B1B9"/>
<path d="M325.267 21.1742C324.731 21.0189 324.185 20.8977 323.634 20.8113C322.544 20.6436 321.443 20.5632 320.341 20.5707H310.361C309.981 20.5704 309.614 20.7062 309.326 20.9535C309.037 21.2008 308.846 21.5433 308.788 21.9191L306.665 35.3844L306.604 35.7772C306.67 35.3485 306.887 34.9578 307.216 34.6755C307.545 34.3933 307.964 34.2383 308.397 34.2385H312.133C319.469 34.2385 325.214 31.2548 326.893 22.6232C326.943 22.3677 326.985 22.1189 327.023 21.8756C326.58 21.643 326.118 21.4479 325.643 21.2925C325.518 21.2511 325.393 21.2116 325.267 21.1742Z" fill="#A7B1B9"/>
<path d="M308.788 21.919C308.846 21.5431 309.036 21.2004 309.325 20.9532C309.614 20.7061 309.981 20.5708 310.361 20.572H320.341C321.523 20.572 322.627 20.6494 323.634 20.8126C324.315 20.9198 324.987 21.0802 325.644 21.2924C326.139 21.4569 326.6 21.6512 327.025 21.8755C327.524 18.6852 327.02 16.5131 325.298 14.5462C323.399 12.3808 319.972 11.4538 315.586 11.4538H302.854C301.958 11.4538 301.193 12.1062 301.055 12.9939L295.752 46.6569C295.727 46.8132 295.736 46.973 295.779 47.1253C295.822 47.2776 295.897 47.4188 296 47.5392C296.103 47.6596 296.23 47.7563 296.373 47.8227C296.517 47.8891 296.673 47.9236 296.831 47.9238H304.691L306.665 35.3843L308.788 21.919Z" fill="#A7B1B9"/>
<path d="M588.56 66.8103H592.873V67.8057H588.56V66.8103ZM516.832 60.7732L516.446 70.7641V70.9377C516.446 71.7834 516.696 71.9579 518.049 72.0534V72.5163C517.064 72.4407 516.677 72.4213 516.137 72.4213C515.596 72.4213 515.21 72.4407 514.207 72.5163V72.0534C515.557 71.9579 515.751 71.8033 515.79 70.7641L516.195 61.3131V61.1993C516.195 60.3122 515.924 60.1203 514.593 60.0437V59.5614C515.345 59.6196 515.635 59.639 516.176 59.639C516.789 59.6446 517.401 59.6128 518.01 59.5441L521.6 69.2824L525.247 59.5441C526.117 59.6196 526.522 59.639 527.102 59.639C527.582 59.639 527.893 59.6196 528.626 59.5614V60.0437C527.314 60.1203 527.022 60.3122 527.022 61.1784V61.3131L527.235 70.7641C527.256 71.8033 527.429 71.9565 528.819 72.0534V72.5163C527.603 72.401 527.139 72.3612 526.406 72.3612C525.672 72.3612 525.208 72.399 523.993 72.5163V72.0534C525.305 71.9773 525.594 71.7645 525.594 70.8616V70.7666L525.422 60.795L522.236 69.3789L522.005 70.0148L521.735 70.7259L521.482 71.4597L521.27 72.0942H520.981L520.769 71.4786L520.498 70.7259L520.228 69.9761L519.996 69.3028L516.832 60.7732ZM531.326 66.9903C531.52 64.7772 532.252 63.6431 533.488 63.6431C534.743 63.6431 535.38 64.7205 535.495 66.9903H531.326ZM533.837 72.033C532.08 72.033 531.306 70.6856 531.289 67.6829H537.041C537.002 64.719 535.786 63.1404 533.507 63.1404C531.193 63.1404 529.744 65.0079 529.744 67.9723C529.744 70.9362 531.193 72.668 533.682 72.668C535.574 72.668 536.81 71.493 537.059 69.5112H536.286C536.055 71.147 535.206 72.033 533.837 72.033ZM538.19 63.8524V63.5068C539.289 63.4109 539.947 63.2955 540.737 63.0638C540.834 63.7768 540.873 64.0836 540.911 64.6619V64.8742C541.337 63.7768 542.165 63.1409 543.17 63.1409C544.134 63.1409 544.849 63.7768 544.849 64.7016C544.849 65.26 544.521 65.625 544.039 65.625C543.595 65.625 543.248 65.355 543.248 64.9711C543.248 64.9328 543.268 64.8573 543.285 64.7772L543.323 64.5858V64.4108C543.323 64.1413 543.092 63.9493 542.744 63.9493C541.742 63.9493 541.105 65.1616 541.105 67.0674V71.0893C541.105 71.9187 541.297 72.0723 542.475 72.1295V72.5148C541.412 72.4199 541.007 72.3985 540.332 72.3985C539.637 72.3985 539.232 72.4199 538.171 72.5148V72.1295C539.347 72.0723 539.56 71.9187 539.56 71.0893V64.7976C539.541 63.9692 539.443 63.8743 538.441 63.8539L538.19 63.8524ZM552.234 62.9688V66.1455H551.808C551.461 64.4694 550.747 63.6615 549.57 63.6615C548.121 63.6615 547.273 65.2217 547.273 67.9738C547.273 70.6677 548.025 72.0345 549.511 72.0345C550.708 72.0345 551.422 71.1883 551.654 69.4953H552.445C552.194 71.5552 551.094 72.6709 549.357 72.6709C547.118 72.6709 545.594 70.784 545.594 67.9753C545.594 65.1059 547.137 63.1434 549.415 63.1434C550.245 63.1434 550.766 63.3557 551.385 63.9523L551.905 62.9703H552.234V62.9688H552.234ZM555.403 66.9903C555.596 64.7772 556.329 63.6431 557.565 63.6431C558.82 63.6431 559.456 64.7205 559.571 66.9903H555.403ZM557.913 72.033C556.156 72.033 555.384 70.6856 555.365 67.6829H561.116C561.078 64.719 559.861 63.1404 557.585 63.1404C555.267 63.1404 553.819 65.0079 553.819 67.9723C553.819 70.9362 555.267 72.668 557.759 72.668C559.65 72.668 560.886 71.493 561.135 69.5112H560.364C560.132 71.147 559.283 72.033 557.913 72.033ZM566.462 72.1499C565.072 72.1499 564.339 70.705 564.339 67.9544C564.339 65.165 565.014 63.7977 566.405 63.7977C567.834 63.7977 568.567 65.26 568.567 68.0911C568.567 70.7636 567.852 72.1499 566.462 72.1499ZM570.091 70.5125V59.4008C569.126 59.6584 568.258 59.8111 567.178 59.9264V60.2546C568.393 60.2546 568.548 60.3893 568.548 61.3897V64.7573C567.834 63.6033 567.274 63.2557 566.231 63.2557C564.166 63.2557 562.718 65.1993 562.718 67.9708C562.718 70.7428 564.184 72.6849 566.289 72.6849C567.389 72.6849 568.142 72.1847 568.682 71.1077C568.759 71.8391 568.759 71.9157 568.953 72.6461C569.743 72.3955 570.072 72.3189 571.211 72.1847L571.5 72.1469V71.8197C570.207 71.7814 570.091 71.6865 570.091 70.5125ZM573.815 66.9903C574.008 64.7772 574.741 63.6431 575.977 63.6431C577.232 63.6431 577.868 64.7205 577.983 66.9903H573.815ZM576.325 72.033C574.567 72.033 573.797 70.6856 573.776 67.6829H579.528C579.489 64.719 578.274 63.1404 575.997 63.1404C573.679 63.1404 572.232 65.0079 572.232 67.9723C572.232 70.9362 573.679 72.668 576.17 72.668C578.062 72.668 579.297 71.493 579.547 69.5112H578.774C578.544 71.147 577.694 72.033 576.325 72.033ZM581.167 72.6879V69.4724L581.592 69.454C581.939 71.2062 582.75 72.0534 584.102 72.0534C585.239 72.0534 586.09 71.3021 586.09 70.3226C586.09 69.6683 585.724 69.2263 584.776 68.8016L584.043 68.4735L583.156 68.0697C581.745 67.4159 581.302 66.8764 581.302 65.7597C581.302 64.2387 582.497 63.201 584.197 63.201C584.95 63.201 585.511 63.3741 586.166 63.8146L586.494 63.026H586.841V66.0093H586.396C586.221 64.4689 585.585 63.739 584.37 63.739C583.348 63.739 582.554 64.4321 582.554 65.3366C582.554 66.1058 582.844 66.3573 584.601 67.1265L585.412 67.4741C586.877 68.107 587.401 68.7246 587.401 69.8607C587.401 71.4776 586.107 72.6307 584.294 72.6307C583.405 72.6307 582.71 72.3995 581.977 71.8227L581.512 72.6879H581.167H581.167ZM598.136 66.0471C599.158 66.0471 599.737 66.2211 600.182 66.6626C600.626 67.1071 600.878 67.934 600.878 68.8563C600.878 70.781 599.911 71.86 598.194 71.86H597.499C596.476 71.86 596.303 71.7049 596.303 70.8581V66.0456L598.136 66.0471ZM596.301 60.2148H597.942C599.564 60.2148 600.277 61.0054 600.277 62.7943C600.277 63.6794 600.065 64.3158 599.641 64.8145C599.216 65.2973 598.696 65.4494 597.616 65.4494H596.303V60.2143H596.301V60.2148ZM601.995 62.7555C601.995 61.7547 601.571 60.8706 600.837 60.3107C600.182 59.8299 599.43 59.6191 598.173 59.6191H593.097V60.0999C594.487 60.1775 594.679 60.3311 594.679 61.3703V70.7045C594.679 71.7441 594.524 71.8774 593.097 71.9947V72.4576H597.98C599.408 72.4576 600.181 72.2831 600.992 71.7829C601.957 71.1674 602.594 69.993 602.594 68.7827C602.594 67.7411 602.149 66.7989 601.397 66.2236C600.992 65.9158 600.567 65.7403 599.871 65.6071C601.263 65.085 601.995 64.103 601.995 62.7555ZM605.745 66.9903C605.939 64.7772 606.672 63.6431 607.908 63.6431C609.161 63.6431 609.799 64.7205 609.914 66.9903H605.745ZM608.255 72.033C606.499 72.033 605.725 70.6856 605.707 67.6829H611.46C611.421 64.719 610.204 63.1404 607.926 63.1404C605.61 63.1404 604.162 65.0079 604.162 67.9723C604.162 70.9362 605.61 72.668 608.099 72.668C609.991 72.668 611.226 71.493 611.477 69.5112H610.705C610.475 71.147 609.626 72.033 608.255 72.033ZM612.48 63.929V63.6033C613.6 63.4482 614.257 63.2955 615.028 63.0255C615.125 63.47 615.184 63.9687 615.221 64.7001C615.917 63.66 616.707 63.1995 617.827 63.1995C618.986 63.1995 619.989 63.7937 620.376 64.7379C620.57 65.2008 620.666 65.7388 620.666 66.4692V71.0888C620.666 71.9172 620.859 72.0708 622.036 72.128V72.5133C621.013 72.4164 620.627 72.398 619.932 72.398C619.217 72.398 618.832 72.4164 617.827 72.5133V72.128C618.869 72.0912 619.121 71.8978 619.121 71.1281V66.412C619.121 64.7379 618.619 64.0632 617.384 64.0632C616.07 64.0632 615.376 64.8921 615.376 66.4692V71.1281C615.376 71.8978 615.628 72.0912 616.633 72.128V72.5133C615.628 72.4164 615.243 72.398 614.547 72.398C613.872 72.398 613.465 72.4164 612.462 72.5133V72.128C613.638 72.0708 613.832 71.9172 613.832 71.0888V64.8543C613.813 64.0632 613.697 63.9493 612.733 63.9493C612.673 63.9493 612.578 63.929 612.48 63.929ZM622.786 72.4576L628.017 63.8728H625.642C624.388 63.8728 624.078 64.1413 623.383 65.8741H622.999L623.443 63.3721H630.083L624.833 71.9564H627.09C628.404 71.9564 628.943 71.4379 629.523 69.6852H629.928L629.427 72.4576H622.786Z" fill="#A7B1B9"/>
<path d="M595.76 41.6669C598.331 37.4029 599.687 32.5197 599.68 27.5441C599.68 12.3806 587.351 0.088501 572.144 0.088501C556.936 0.088501 544.609 12.3811 544.609 27.5441C544.602 32.5198 545.957 37.4031 548.53 41.6669L548.429 41.7469L548.549 41.7007C553.369 49.669 562.131 54.9996 572.144 54.9996C582.157 54.9996 590.919 49.669 595.738 41.7007L595.857 41.7469L595.76 41.6669ZM596.297 27.5441C596.301 31.7487 595.196 35.8804 593.091 39.5239L576.057 25.8441L572.564 3.47352C585.708 3.69727 596.297 14.3843 596.297 27.5441ZM547.994 27.5441C547.994 14.3848 558.582 3.69777 571.726 3.47352L568.232 25.8441L551.198 39.5239C549.095 35.8802 547.989 31.7485 547.994 27.5441ZM572.145 51.6251C563.575 51.6251 556.053 47.17 551.766 40.4602L572.145 32.5992L592.523 40.4606C588.236 47.17 580.716 51.6251 572.145 51.6251Z" fill="#A7B1B9"/>
<path d="M14.8853 108.746C8.36634 108.746 2.93408 111.538 2.93408 119.965C2.93408 126.64 6.58693 130.844 15.0533 130.844C25.0189 130.844 25.6576 124.214 25.6576 124.214H20.829C20.829 124.214 19.7938 127.784 14.7589 127.784C10.6581 127.784 7.70878 124.987 7.70878 121.066H26.1629V118.605C26.1629 114.726 23.7244 108.746 14.8853 108.746ZM14.7167 111.89C18.6202 111.89 21.2813 114.305 21.2813 117.925H7.81544C7.81544 114.082 11.2892 111.89 14.7167 111.89Z" fill="#A7B1B9"/>
<path d="M26.1597 100.586V126.612C26.1597 128.089 26.0552 130.164 26.0552 130.164H30.6606C30.6606 130.164 30.8262 128.674 30.8262 127.312C30.8262 127.312 33.1016 130.908 39.2889 130.908C45.8041 130.908 50.2298 126.339 50.2298 119.795C50.2298 113.706 46.1648 108.809 39.2993 108.809C32.8704 108.809 30.8727 112.315 30.8727 112.315V100.586H26.1597ZM38.1106 112.028C42.5351 112.028 45.3488 115.345 45.3488 119.795C45.3488 124.567 42.0992 127.688 38.1423 127.688C33.4201 127.688 30.8727 123.965 30.8727 119.837C30.8727 115.991 33.1583 112.028 38.1106 112.028Z" fill="#A7B1B9"/>
<path d="M61.676 108.746C51.8689 108.746 51.24 114.168 51.24 115.035H56.1214C56.1214 115.035 56.3772 111.869 61.3393 111.869C64.5637 111.869 67.0623 113.36 67.0623 116.225V117.245H61.3393C53.7417 117.245 49.7251 119.49 49.7251 124.045C49.7251 128.527 53.4362 130.966 58.4517 130.966C65.2869 130.966 67.4887 127.152 67.4887 127.152C67.4887 128.669 67.6043 130.164 67.6043 130.164H71.9437C71.9437 130.164 71.7757 128.311 71.7757 127.126V116.879C71.7757 110.159 66.4091 108.746 61.676 108.746ZM67.0623 120.305V121.665C67.0623 123.438 65.9784 127.848 59.5982 127.848C56.1044 127.848 54.6064 126.087 54.6064 124.044C54.6064 120.329 59.6509 120.305 67.0623 120.305Z" fill="#A7B1B9"/>
<path d="M69.147 109.596H74.6384L82.5197 125.542L90.3828 109.596H95.3575L81.035 137.985H75.8167L79.9495 130.071L69.147 109.596Z" fill="#A7B1B9"/>
<path d="M219.838 117.192C218.682 117.192 217.848 117.569 217.003 117.954V126.658C217.813 126.734 218.277 126.734 219.045 126.734C221.819 126.734 222.2 125.469 222.2 123.702V119.545C222.2 118.24 221.765 117.192 219.838 117.192ZM201.409 116.717C199.484 116.717 199.044 117.769 199.044 119.073V119.805H203.771V119.073C203.771 117.769 203.332 116.717 201.409 116.717ZM165.709 125.776C165.709 126.807 166.197 127.343 167.276 127.343C168.433 127.343 169.117 126.967 169.962 126.581V124.517H167.433C166.235 124.517 165.709 124.739 165.709 125.776ZM237.764 117.192C235.836 117.192 235.168 118.24 235.168 119.545V124.307C235.168 125.615 235.836 126.667 237.764 126.667C239.688 126.667 240.361 125.615 240.361 124.307V119.545C240.36 118.24 239.687 117.192 237.764 117.192ZM156.258 131.116H150.589V117.45H147.756V112.742H150.59V109.914C150.59 106.071 152.188 103.787 156.732 103.787H160.515V108.498H158.151C156.382 108.498 156.265 109.156 156.265 110.384L156.258 112.741H160.541L160.04 117.45H156.258V131.116ZM175.632 131.151H170.907L170.703 129.961C168.546 131.151 166.621 131.344 165.35 131.344C161.885 131.344 160.041 129.039 160.041 125.851C160.041 122.089 162.193 120.747 166.043 120.747H169.962V119.934C169.962 118.014 169.741 117.45 166.776 117.45H161.929L162.403 112.742H167.701C174.206 112.742 175.632 114.788 175.632 119.972V131.151ZM191.699 117.796C188.759 117.294 187.914 117.183 186.5 117.183C183.959 117.183 183.191 117.741 183.191 119.891V123.956C183.191 126.105 183.959 126.666 186.5 126.666C187.914 126.666 188.759 126.554 191.699 126.05V130.643C189.124 131.218 187.446 131.369 186.028 131.369C179.942 131.369 177.522 128.181 177.522 123.576V120.278C177.522 115.669 179.942 112.476 186.028 112.476C187.446 112.476 189.124 112.627 191.699 113.205V117.796ZM209.439 123.576H199.044V123.956C199.044 126.105 199.812 126.666 202.353 126.666C204.636 126.666 206.03 126.554 208.965 126.05V130.643C206.134 131.218 204.66 131.369 201.883 131.369C195.796 131.369 193.375 128.181 193.375 123.576V119.805C193.375 115.776 195.171 112.476 201.408 112.476C207.646 112.476 209.439 115.738 209.439 119.805V123.576ZM227.868 123.664C227.868 128.114 226.59 131.361 218.853 131.361C216.058 131.361 214.42 131.116 211.336 130.644V105.202L217.003 104.261V113.16C218.227 112.707 219.812 112.476 221.255 112.476C226.923 112.476 227.867 115.007 227.867 119.074V123.664H227.868ZM246.034 123.76C246.034 127.6 244.442 131.324 237.783 131.324C231.121 131.324 229.499 127.6 229.499 123.76V120.053C229.499 116.212 231.121 112.487 237.783 112.487C244.442 112.487 246.034 116.212 246.034 120.053V123.76ZM264.188 123.76C264.188 127.6 262.594 131.324 255.936 131.324C249.274 131.324 247.653 127.6 247.653 123.76V120.053C247.653 116.212 249.274 112.487 255.936 112.487C262.594 112.487 264.188 116.212 264.188 120.053V123.76ZM282.818 131.116H276.675L271.48 122.479V131.116H265.811V105.202L271.48 104.26V120.943L276.675 112.742H282.818L277.147 121.691L282.818 131.116ZM255.917 117.192C253.992 117.192 253.324 118.24 253.324 119.545V124.307C253.324 125.615 253.992 126.667 255.917 126.667C257.84 126.667 258.52 125.615 258.52 124.307V119.545C258.52 118.24 257.84 117.192 255.917 117.192ZM286.054 127.893C287.008 127.893 287.769 128.668 287.769 129.636C287.769 130.619 287.008 131.386 286.047 131.386C285.09 131.386 284.314 130.619 284.314 129.636C284.314 128.668 285.09 127.893 286.047 127.893H286.054ZM286.047 128.164C285.277 128.164 284.648 128.823 284.648 129.636C284.648 130.464 285.278 131.115 286.054 131.115C286.83 131.122 287.45 130.464 287.45 129.644C287.45 128.824 286.83 128.164 286.054 128.164H286.047ZM285.721 130.651H285.41V128.705C285.573 128.683 285.729 128.66 285.962 128.66C286.257 128.66 286.45 128.722 286.569 128.807C286.684 128.893 286.745 129.024 286.745 129.209C286.745 129.466 286.575 129.62 286.366 129.683V129.697C286.537 129.729 286.653 129.883 286.692 130.169C286.737 130.471 286.785 130.587 286.815 130.65H286.489C286.443 130.587 286.396 130.409 286.357 130.153C286.312 129.906 286.186 129.813 285.937 129.813H285.721V130.651H285.721ZM285.721 129.574H285.946C286.202 129.574 286.419 129.481 286.419 129.24C286.419 129.069 286.296 128.9 285.946 128.9C285.844 128.9 285.774 128.907 285.721 128.915V129.574Z" fill="#A7B1B9"/>
<path d="M369.413 129.725H363.217L367.089 105.928H373.286L369.413 129.725ZM358.005 105.928L352.098 122.296L351.399 118.771L351.4 118.772L349.315 108.07C349.315 108.07 349.063 105.928 346.376 105.928H336.611L336.496 106.331C336.496 106.331 339.483 106.952 342.977 109.051L348.36 129.726H354.816L364.673 105.928H358.005ZM406.738 129.725H412.427L407.467 105.927H402.486C400.186 105.927 399.626 107.701 399.626 107.701L390.385 129.725H396.844L398.136 126.19H406.012L406.738 129.725ZM399.92 121.307L403.175 112.402L405.007 121.307H399.92ZM390.87 111.65L391.754 106.54C391.754 106.54 389.026 105.502 386.182 105.502C383.107 105.502 375.805 106.846 375.805 113.381C375.805 119.529 384.375 119.605 384.375 122.834C384.375 126.064 376.688 125.485 374.152 123.449L373.23 128.792C373.23 128.792 375.997 130.136 380.224 130.136C384.452 130.136 390.83 127.947 390.83 121.988C390.83 115.801 382.184 115.225 382.184 112.535C382.184 109.844 388.219 110.19 390.87 111.65Z" fill="#A7B1B9"/>
<path d="M351.4 118.772L349.315 108.07C349.315 108.07 349.063 105.927 346.376 105.927H336.611L336.496 106.33C336.496 106.33 341.19 107.303 345.692 110.947C349.996 114.43 351.4 118.772 351.4 118.772Z" fill="#A7B1B9"/>
<path d="M551.399 108.193C551.399 107.447 551.702 106.731 552.241 106.203C552.78 105.676 553.511 105.379 554.273 105.379C555.035 105.379 555.766 105.676 556.305 106.203C556.844 106.731 557.147 107.447 557.147 108.193C557.12 108.921 556.805 109.61 556.269 110.115C555.733 110.621 555.017 110.903 554.273 110.903C553.529 110.903 552.814 110.621 552.278 110.115C551.742 109.61 551.427 108.921 551.399 108.193Z" fill="#A7B1B9"/>
<path d="M596.747 126.957C596.747 125.395 598.032 124.134 599.615 124.134C600.38 124.134 601.113 124.431 601.653 124.96C602.194 125.489 602.498 126.207 602.498 126.955C602.498 127.703 602.194 128.421 601.653 128.95C601.113 129.479 600.38 129.776 599.615 129.776C598.034 129.776 596.747 128.513 596.747 126.955" fill="#A7B1B9"/>
<path d="M504.23 125.736C501.756 125.736 500.035 123.812 500.035 121.061C500.035 118.313 501.756 116.39 504.232 116.39C506.72 116.39 508.459 118.313 508.459 121.061C508.459 123.855 506.758 125.736 504.23 125.736ZM504.23 112.282C498.994 112.282 495.193 115.975 495.193 121.061C495.193 126.15 498.996 129.841 504.23 129.841C509.488 129.841 513.302 126.15 513.302 121.063C513.302 115.975 509.488 112.282 504.232 112.282H504.23ZM545.833 121.502C545.651 121.157 545.42 120.839 545.148 120.556L544.988 120.393L545.157 120.237C545.397 119.988 545.643 119.694 545.879 119.353L550.502 112.629H544.89L541.418 117.889C541.221 118.171 540.825 118.313 540.231 118.313H539.44V108.367C539.44 106.378 538.173 106.108 536.806 106.108H534.464L534.47 129.582H539.442V122.541H539.909C540.475 122.541 540.859 122.605 541.037 122.907L543.779 127.974C544.546 129.349 545.309 129.582 546.746 129.582H550.555L547.716 124.99L545.835 121.502H545.833ZM569.967 112.243C567.437 112.243 565.824 113.344 564.919 114.274L564.619 114.572L564.511 114.167C564.247 113.169 563.35 112.623 562.003 112.623H559.775L559.789 129.576H564.727V121.763C564.727 120.999 564.827 120.336 565.035 119.731C565.584 117.899 567.117 116.761 569.032 116.761C570.574 116.761 571.176 117.558 571.176 119.615V127C571.176 128.756 572.007 129.576 573.802 129.576H576.152L576.144 118.793C576.144 114.51 574.008 112.245 569.967 112.245V112.243ZM554.333 112.629H551.994L552.01 125.738V129.582H554.505L554.594 129.586L555.758 129.582H556.915V129.576H556.923L556.933 115.205C556.933 113.471 556.087 112.631 554.335 112.631L554.333 112.629ZM523.622 125.736C521.148 125.736 519.425 123.812 519.425 121.061C519.425 118.313 521.148 116.39 523.624 116.39C526.106 116.39 527.851 118.313 527.851 121.061C527.851 123.855 526.15 125.736 523.624 125.736H523.622ZM523.622 112.282C518.382 112.282 514.579 115.975 514.579 121.061C514.579 126.15 518.382 129.841 523.624 129.841C528.874 129.841 532.697 126.15 532.697 121.063C532.697 115.975 528.874 112.282 523.624 112.282" fill="#A7B1B9"/>
<path d="M629.452 125.736C626.978 125.736 625.253 123.812 625.253 121.061C625.253 118.313 626.978 116.39 629.452 116.39C631.938 116.39 633.681 118.313 633.681 121.061C633.681 123.855 631.98 125.736 629.452 125.736ZM629.452 112.282C624.212 112.282 620.411 115.975 620.411 121.061C620.411 126.15 624.212 129.841 629.452 129.841C634.704 129.841 638.525 126.15 638.525 121.063C638.525 115.975 634.702 112.282 629.452 112.282Z" fill="#A7B1B9"/>
<path d="M586.553 124.99C583.853 124.99 582.893 122.686 582.893 120.525C582.893 119.572 583.139 116.471 586.295 116.471C587.862 116.471 589.95 116.91 589.95 120.683C589.95 124.243 588.103 124.99 586.553 124.99ZM592.514 112.584C591.577 112.584 590.857 112.95 590.494 113.618L590.358 113.877L590.13 113.681C589.334 113.007 587.904 112.205 585.585 112.205C580.967 112.205 577.859 115.601 577.859 120.65C577.859 125.697 581.075 129.224 585.677 129.224C587.248 129.224 588.491 128.863 589.476 128.134L589.856 127.854V128.325C589.856 130.589 588.361 131.84 585.649 131.84C584.33 131.84 583.131 131.526 582.326 131.24C581.281 130.93 580.665 131.187 580.243 132.216L579.85 133.164L579.296 134.551L579.638 134.729C581.375 135.631 583.635 136.17 585.677 136.17C589.88 136.17 594.792 134.063 594.792 128.134L594.81 112.584H592.514Z" fill="#A7B1B9"/>
<path d="M485.844 125.542L481.825 125.538V120.836C481.825 119.829 482.223 119.308 483.101 119.186H485.844C487.799 119.186 489.064 120.393 489.066 122.347C489.064 124.353 487.831 125.54 485.844 125.54V125.542ZM481.825 112.854V111.616C481.825 110.532 482.293 110.017 483.32 109.95H485.377C487.141 109.95 488.197 110.983 488.197 112.713C488.197 114.029 487.473 115.568 485.441 115.568H481.825V112.854ZM490.975 117.548L490.249 117.149L490.883 116.618C491.622 115.997 492.857 114.6 492.857 112.19C492.857 108.498 489.935 106.116 485.409 106.116H479.657C479.01 106.139 478.396 106.405 477.944 106.859C477.492 107.313 477.235 107.919 477.227 108.553V129.498H485.511C490.541 129.498 493.787 126.818 493.787 122.666C493.787 120.43 492.739 118.52 490.975 117.548Z" fill="#A7B1B9"/>
<path d="M660.579 112.299C659.56 112.303 658.554 112.531 657.637 112.966C656.72 113.401 655.914 114.032 655.279 114.813L654.923 115.256L654.643 114.76C653.726 113.128 652.153 112.299 649.965 112.299C647.67 112.299 646.13 113.553 645.416 114.298L644.947 114.794L644.767 114.141C644.507 113.201 643.653 112.685 642.36 112.685H640.284L640.264 129.575H644.977V122.119C644.977 121.465 645.062 120.82 645.228 120.144C645.678 118.342 646.915 116.404 648.994 116.598C650.275 116.72 650.904 117.689 650.904 119.563V129.575H655.652V122.119C655.652 121.302 655.73 120.691 655.918 120.08C656.298 118.359 657.591 116.596 659.597 116.596C661.05 116.596 661.586 117.399 661.586 119.563V127.106C661.586 128.81 662.363 129.575 664.106 129.575H666.324L666.328 118.793C666.328 114.484 664.39 112.299 660.579 112.299ZM617.679 123.71C617.665 123.728 615.637 125.82 612.965 125.82C610.531 125.82 608.074 124.359 608.074 121.097C608.074 118.279 609.979 116.31 612.709 116.31C613.594 116.31 614.603 116.62 614.761 117.143L614.783 117.231C614.884 117.591 615.103 117.909 615.407 118.134C615.711 118.36 616.082 118.481 616.464 118.479L619.046 118.483V116.273C619.046 113.357 615.257 112.299 612.709 112.299C607.257 112.299 603.302 116.014 603.302 121.132C603.302 126.246 607.213 129.957 612.609 129.957C617.289 129.957 619.835 126.945 619.859 126.916L619.995 126.751L617.949 123.43L617.679 123.71Z" fill="#A7B1B9"/>
<path d="M73.0309 191.574C68.5573 191.574 66.3326 194.818 66.3326 199.197C66.3326 203.754 68.4699 206.939 73.0309 206.939C77.5957 206.939 79.7266 203.754 79.7266 199.197C79.7266 194.818 77.5044 191.574 73.0309 191.574ZM73.0309 203.959C71.8418 203.959 71.3132 202.907 71.3132 199.195C71.3132 195.806 71.6656 194.552 73.0309 194.552C74.3936 194.552 74.7473 195.806 74.7473 199.195C74.7473 202.911 74.2149 203.959 73.0309 203.959ZM82.8197 190.323V191.961H80.8624V195.294H82.8197V206.622H87.6203V195.294H90.2329V191.961H87.6203V190.474C87.6203 189.583 88.0766 189.096 89.3405 189.096C89.6067 189.096 89.9616 189.153 90.2316 189.214V185.593C89.4571 185.505 88.7447 185.415 87.8003 185.415C84.6299 185.417 82.8197 186.73 82.8197 190.323ZM31.6409 196.08C31.6409 192.838 28.6505 191.615 25.7716 191.615C23.0487 191.615 20.3791 192.78 19.8479 195.671L24.0236 196.52C24.0755 195.663 24.4444 194.594 25.5967 194.594C26.4257 194.594 26.839 195.175 26.839 196.05V197.311C23.6673 197.673 19.2965 198.8 19.1913 202.617C19.1177 205.312 20.9419 206.907 23.3352 206.907C24.7512 206.907 26.1684 206.136 26.9873 205.285C27.0165 205.529 27.0482 206.221 27.1382 206.626H32.0871C31.9058 206.426 31.6396 205.925 31.6396 204.26L31.6409 196.08ZM26.8403 202.888C26.4321 203.418 25.8464 203.799 25.3001 203.799C24.4393 203.799 23.9069 203.267 23.9069 202.244C23.9069 200.374 25.1619 199.745 26.839 199.586L26.8403 202.888ZM43.4135 191.612C41.5412 191.612 40.219 192.467 39.2303 193.461H39.1682L39.1441 191.961H34.4462V206.623H39.2468V196.137C39.6854 195.584 40.2685 195.226 40.8085 195.226C41.6109 195.226 41.9152 195.69 41.9152 196.526V206.621H46.7157V195.024C46.717 193.013 45.5153 191.612 43.4135 191.612ZM62.8643 191.96H58.0904L54.5587 196.391H54.5004V185.826H49.6973V206.622H54.5004V201.371L55.5094 200.226H55.5677L57.9078 206.622H62.8871L58.8484 196.474L62.8643 191.96ZM14.075 195.806V195.644C15.6038 195.055 17.518 193.624 17.518 190.906C17.518 188.035 15.0613 185.825 11.3242 185.825H2.98438V206.623H11.1113C15.117 206.623 18.0187 204.619 18.0187 201.06C18.0187 198.394 16.3606 196.549 14.075 195.806ZM8.16653 189.507H10.0338C11.2456 189.507 12.6033 189.828 12.6033 191.812C12.6033 193.042 11.8414 194.063 9.91335 194.063H8.16653V189.507ZM10.1225 202.769H8.16653V197.568H10.1225C11.8414 197.568 12.8125 198.592 12.8125 200.14C12.8125 202.271 11.2761 202.769 10.1225 202.769ZM192.327 204.26V196.08C192.327 192.838 189.339 191.615 186.461 191.615C183.736 191.615 181.066 192.78 180.534 195.671L184.713 196.52C184.763 195.663 185.129 194.594 186.285 194.594C187.109 194.594 187.529 195.175 187.529 196.05V197.311C184.353 197.673 179.979 198.8 179.876 202.617C179.802 205.312 181.625 206.907 184.022 206.907C185.438 206.907 186.852 206.136 187.677 205.285C187.702 205.529 187.735 206.221 187.823 206.626H192.769C192.596 206.423 192.327 205.925 192.327 204.26ZM187.531 202.888C187.117 203.418 186.534 203.799 185.989 203.799C185.127 203.799 184.594 203.267 184.594 202.244C184.594 200.374 185.849 199.745 187.529 199.586L187.531 202.888ZM139.989 191.574C135.573 191.574 133.377 195.079 133.377 199.228C133.377 203.288 135.452 206.941 140.045 206.941C141.34 206.979 142.615 206.613 143.685 205.894C144.756 205.174 145.568 204.139 146.006 202.937L142.769 201.767C142.531 202.948 141.554 203.78 140.395 203.78C138.463 203.78 138.112 201.613 138.177 200.307H146.211V199.314C146.211 195.489 144.613 191.574 139.989 191.574ZM141.765 197.501H138.178C138.104 196.121 138.594 194.553 139.958 194.553C141.616 194.553 141.812 196.142 141.765 197.501ZM159.158 191.961H163.956V206.623H159.158V191.961ZM159.158 185.825H163.956V190.032H159.158V185.825ZM172.979 194.553C173.752 194.553 174.135 194.963 174.371 195.544C174.581 196.1 174.609 196.801 174.609 197.387H178.702C178.702 195.926 177.93 191.576 172.837 191.576C168.302 191.576 166.052 195.579 166.052 199.579C166.052 203.199 168.3 206.942 172.629 206.942C176.126 206.942 178.2 205.074 178.558 201.51L174.823 200.982C174.823 202.093 174.675 203.782 172.984 203.782C171.743 203.782 171.209 202.706 171.209 199.401C171.2 196.481 171.381 194.553 172.979 194.553ZM98.5765 185.826L93.6289 206.623H98.2508L99.1711 202.419H104.06L104.891 206.623H110.077L105.569 185.826H98.5765ZM99.9127 198.738L101.695 190.265H101.801L103.319 198.738H99.9127ZM152.961 193.945H152.881L152.833 191.96H148.187V206.622H152.993V197.127C153.556 196.466 154.4 195.992 155.626 195.992C156.452 195.992 157.037 196.19 157.583 196.397V191.611C155.731 191.612 153.94 192.397 152.961 193.945ZM127.943 191.612C125.932 191.612 124.499 192.68 123.66 193.573H123.597C123.144 192.442 122.17 191.612 120.711 191.612C118.922 191.612 117.418 192.523 116.414 193.456H116.353L116.327 191.962H111.642V206.624H116.353V196.167C116.757 195.628 117.478 195.264 117.982 195.264C118.873 195.264 119.109 195.789 119.109 196.579V206.624H123.822V196.167C124.134 195.762 124.819 195.264 125.463 195.264C126.337 195.264 126.58 195.789 126.58 196.579V206.624H131.29V194.935C131.29 192.911 129.938 191.612 127.943 191.612ZM221.839 182.532C223.743 183.274 225.626 184.069 227.484 184.917C221.58 187.279 215.868 190.082 210.397 193.302C208.551 192.348 206.678 191.448 204.779 190.601C210.238 187.467 215.943 184.768 221.839 182.532ZM214.795 180.079C208.672 181.992 202.755 184.494 197.13 187.551C198.917 188.188 200.69 188.867 202.435 189.593C207.884 186.433 213.623 183.785 219.576 181.685C217.995 181.113 216.401 180.578 214.795 180.079Z" fill="#A7B1B9"/>
<path d="M234.667 182.296C229.829 179.989 224.817 178.054 219.675 176.509C217.863 177.024 216.065 177.585 214.285 178.196C219.579 179.742 224.739 181.699 229.718 184.051C231.354 183.431 233.004 182.846 234.667 182.296ZM242.543 179.982C237.589 177.853 232.487 176.077 227.276 174.666C225.615 175.005 223.963 175.382 222.32 175.798C227.489 177.287 232.532 179.17 237.405 181.43C239.107 180.911 240.82 180.428 242.543 179.982ZM255.187 184.169C242.892 188.257 231.268 194.093 220.685 201.493C223.308 203.084 225.871 204.77 228.368 206.547C238.341 198.746 249.348 192.324 261.085 187.461C259.152 186.308 257.185 185.21 255.187 184.169ZM246.666 180.178C233.893 183.514 221.76 188.891 210.751 196.095C213.209 197.286 215.625 198.561 217.993 199.918C228.779 192.552 240.673 186.904 253.238 183.178C251.08 182.111 248.888 181.11 246.666 180.178ZM232.41 205.239C232.41 204.508 233.034 203.913 233.801 203.913C234.568 203.913 235.192 204.508 235.192 205.239C235.192 205.983 234.568 206.578 233.801 206.578C233.034 206.578 232.41 205.983 232.41 205.239ZM232.673 205.239C232.673 205.847 233.175 206.316 233.801 206.316C234.421 206.316 234.924 205.847 234.924 205.239C234.924 204.65 234.422 204.176 233.801 204.176C233.176 204.176 232.673 204.65 232.673 205.239Z" fill="#A7B1B9"/>
<path d="M234.493 205.987H234.233L233.787 205.301H233.512V205.987H233.284V204.499H233.961C234.093 204.49 234.224 204.516 234.343 204.572C234.397 204.607 234.441 204.655 234.471 204.712C234.501 204.768 234.516 204.831 234.515 204.895C234.515 205.185 234.299 205.295 234.024 205.302L234.493 205.987ZM233.77 205.119C233.986 205.119 234.284 205.155 234.284 204.889C234.284 204.695 234.111 204.669 233.916 204.669H233.516V205.116L233.77 205.119Z" fill="#A7B1B9"/>
<path d="M443.972 199.113L451.114 217.91C449.009 217.611 446.906 217.237 444.764 216.9L440.741 206.513L436.607 216.042C434.578 215.705 432.585 215.593 430.556 215.331L437.81 198.889L431.231 182.038H437.32L441.003 191.453L444.95 182.038H451.113L443.972 199.113ZM426.422 182.038H420.897V214.622C422.701 214.734 424.58 214.808 426.422 215.032V182.038ZM416.124 214.248C411.088 213.911 406.051 213.614 400.902 213.5V182.038H406.539V208.195C409.772 208.269 413.004 208.529 416.124 208.679V214.248ZM394.887 194.781V200.385H387.183V213.127H381.622V182.038H397.407V187.642H387.184V194.781H394.889L394.887 194.781ZM372.149 187.642V213.426C370.269 213.426 368.354 213.426 366.511 213.5V187.642H360.685V182.038H378.011V187.642H372.149ZM354.597 200.683C352.117 200.683 349.185 200.683 347.08 200.797V209.128C350.387 208.904 353.695 208.643 357.039 208.531V213.911L341.443 215.145V182.038H357.038V187.642H347.08V195.191C349.26 195.191 352.605 195.079 354.597 195.079V200.684L354.597 200.683ZM323.363 197.544V217.124C321.335 217.349 319.529 217.611 317.614 217.91V182.038H322.989L330.317 202.404V182.038H335.955V215.593C333.963 215.93 331.933 216.042 329.791 216.34L323.363 197.544Z" fill="#A7B1B9"/>
<path d="M305.64 275.954H293.121V278.867L293.51 278.825L293.52 278.777C293.603 278.346 294.356 277.522 295.283 277.522H298.079L298.08 292.466H300.812L300.796 277.533H303.656C304.601 277.533 305.22 278.064 305.325 278.563L305.337 278.617L305.733 278.605L305.707 275.954H305.64ZM224.418 274.952L224.465 274.999L224.418 274.952C222.607 276.882 221.569 279.525 221.569 282.209C221.569 285.195 222.745 287.91 224.881 289.853C226.921 291.709 229.649 292.731 232.563 292.731C234.09 292.731 237.083 292.464 239.97 290.683L240.082 290.614L240.426 286.409L239.886 286.338L239.807 286.51C237.687 291.051 234.348 291.051 233.092 291.051C227.462 291.051 224.898 286.268 224.898 281.824C224.898 277.526 227.437 273.188 233.112 273.188C234.852 273.188 238.016 273.772 239.662 277.67L239.753 277.885L240.283 277.719L239.937 273.337L239.796 273.274C237.152 272.093 235.019 271.567 232.881 271.567C229.426 271.567 226.5 272.738 224.418 274.952ZM243.117 275.952H243.05L243.055 276.334L243.089 276.352C243.318 276.477 243.573 277.112 243.573 277.824L243.573 292.466H246.254L246.244 284.942L247.417 284.973C248.471 285.033 248.886 285.748 249.413 286.653L249.479 286.765L249.816 287.348C250.389 288.339 251.175 289.698 251.991 290.939C252.578 291.832 253.31 292.345 254.23 292.508C254.886 292.624 256.197 292.579 256.69 292.424L257.28 292.267L257.504 292.208L256.69 291.95C256.361 291.847 255.844 291.614 255.148 290.791C254.717 290.282 254.02 289.143 252.965 287.417L251.919 285.713L251.899 285.683C251.62 285.265 251.152 284.586 250.366 284.155C251.876 283.649 253.358 282.239 253.358 280.139C253.358 279.544 253.209 278.4 252.211 277.431C251.199 276.448 249.622 275.951 247.524 275.951L243.117 275.952ZM247.706 277.44C250.457 277.559 250.536 279.942 250.536 280.212C250.536 282.61 248.807 283.46 247.327 283.46L246.252 283.437V277.466C246.735 277.427 247.221 277.419 247.706 277.44ZM270.559 275.952H270.484L270.535 276.361L270.566 276.377C270.8 276.496 271.021 277.088 271.021 277.594L271.004 292.465H275.601C278.635 292.465 281.147 291.498 282.864 289.669C284.298 288.127 285.101 286.08 285.107 283.95C285.107 282.672 284.686 280.74 283.504 279.157C281.92 277.031 279.407 275.953 276.036 275.953L270.559 275.952ZM273.737 277.537L275.176 277.541C275.559 277.546 276.525 277.57 277.204 277.675C281.72 278.376 282.207 282.297 282.207 283.951C282.207 285.305 281.971 287.233 280.849 288.724C279.747 290.188 278.021 290.929 275.715 290.929C275.166 290.929 274.482 290.928 273.737 290.892L273.737 277.537ZM290.659 275.952H287.509L287.52 276.352L287.555 276.37C287.845 276.518 288.033 277.055 288.033 277.737L288.032 292.464H290.722L290.726 275.951L290.659 275.952ZM344.829 275.952H341.66L341.691 276.323L341.724 276.341C342.009 276.487 342.202 277.047 342.202 277.737V292.464H344.891L344.895 275.951L344.829 275.952ZM267.083 275.952H258.07L258.121 276.339L258.152 276.354C258.398 276.479 258.653 277.063 258.653 277.823L258.651 292.464H267.653L268.307 289.538L267.944 289.405L267.843 289.568C267.098 290.767 266.342 290.926 263.73 290.926C262.8 290.946 261.892 290.863 261.324 290.808V284.07H265.877V282.582L261.324 282.581V277.444L265.015 277.487C265.847 277.487 266.761 278.303 266.842 278.794L266.852 278.852L267.221 278.843L267.148 275.949H267.083V275.952ZM382.311 275.952H373.327L373.345 276.374L373.381 276.391C373.623 276.516 373.881 277.06 373.881 277.823L373.879 292.464H382.88L383.536 289.535L383.13 289.406L383.029 289.568C382.285 290.767 381.536 290.926 378.96 290.926C378.029 290.946 377.122 290.863 376.554 290.808V284.07H381.107V282.582L376.554 282.581V277.444L380.246 277.487C381.265 277.487 382.03 278.282 382.03 278.799V278.87L382.449 278.842L382.378 275.951L382.311 275.952ZM313.474 272.864C312.526 273.563 311.391 274.847 311.369 277.002V277.065C311.369 279.714 313.017 281.107 315.673 282.486L315.663 282.459C315.732 282.517 315.963 282.639 316.684 283.016C318.902 284.156 320.504 284.981 320.504 287.299C320.504 288.095 320.21 289.242 319.389 290.076C318.705 290.77 317.784 291.116 316.654 291.104C313.268 291.067 312.07 288.028 311.712 286.72L311.65 286.495L311.081 286.591L311.239 290.907L311.361 290.979C312.442 291.623 314.25 292.699 316.84 292.726C318.674 292.745 320.535 291.98 321.816 290.68C322.942 289.539 323.536 288.092 323.536 286.498C323.536 282.996 321.088 281.683 318.492 280.291L318.005 280.029C315.347 278.662 314.096 277.83 314.114 276.113C314.126 274.948 314.983 273.104 317.234 273.127C319.851 273.154 321.297 275.172 321.592 276.435L321.645 276.665L322.209 276.591L322.017 272.855L321.912 272.782C320.362 271.712 318.418 271.578 317.653 271.571C316.137 271.555 314.612 272.026 313.474 272.864ZM349.17 280.128C349.148 282.416 350.489 283.574 352.661 284.703L353.48 285.13C355.19 286.01 356.321 286.591 356.321 288.236C356.321 288.523 356.264 289.518 355.518 290.276C355.001 290.8 354.283 291.061 353.387 291.051C350.823 291.025 349.882 288.982 349.548 287.767L349.485 287.54L348.94 287.632L349.067 291.11L349.19 291.182C350.045 291.691 351.475 292.543 353.531 292.565C354.99 292.58 356.469 291.973 357.488 290.937C358.385 290.028 358.859 288.876 358.859 287.605C358.859 284.713 356.906 283.666 354.839 282.556L354.473 282.359C352.252 281.217 351.478 280.704 351.49 279.429C351.498 278.534 352.153 277.21 353.92 277.228C356.081 277.25 357.024 278.851 357.222 279.696L357.274 279.926L357.819 279.854L357.663 276.833L357.557 276.761C356.324 275.909 354.782 275.803 354.174 275.798C351.769 275.771 349.199 277.282 349.17 280.128ZM361.241 280.128C361.219 282.415 362.56 283.574 364.733 284.704L365.551 285.13C367.263 286.01 368.392 286.592 368.392 288.236C368.392 288.523 368.333 289.518 367.589 290.276C367.072 290.8 366.354 291.061 365.458 291.051C362.895 291.025 361.953 288.982 361.619 287.767L361.556 287.54L361.011 287.632L361.138 291.11L361.261 291.182C362.116 291.691 363.547 292.543 365.602 292.565C367.062 292.58 368.54 291.973 369.559 290.937C370.457 290.028 370.931 288.876 370.931 287.605C370.931 284.713 368.979 283.666 366.91 282.556L366.545 282.359C364.324 281.217 363.549 280.704 363.561 279.429C363.574 278.848 363.807 278.294 364.211 277.885C364.645 277.447 365.262 277.22 365.993 277.228C368.154 277.25 369.095 278.851 369.292 279.697L369.347 279.926L369.89 279.854L369.734 276.833L369.628 276.761C368.395 275.909 366.851 275.803 366.247 275.798C363.842 275.771 361.27 277.282 361.241 280.128ZM338.14 275.938L336.022 275.953L336.056 276.324L336.089 276.341C336.195 276.395 336.544 276.654 336.544 277.697L336.556 287.084C336.556 288.902 335.905 291.071 332.803 291.071C329.873 291.071 329.272 289.276 329.272 286.58L329.275 275.953H325.923L325.948 276.321L325.98 276.338C326.194 276.454 326.555 276.89 326.555 277.782V286.58C326.555 292.045 330.062 292.677 332.702 292.677C333.99 292.677 338.195 292.277 338.195 287.124L338.207 275.938L338.14 275.938ZM405.445 271.235C407.341 271.859 409.352 272.733 411.461 273.94C406.283 265.179 397.019 255.637 387.931 249.453C390.274 251.829 394.076 257.058 395.062 262.667C398.786 265.384 402.299 268.276 405.445 271.235ZM405.439 271.232C400.997 269.768 397.211 269.695 394.401 269.991C395.39 267.618 395.49 265.114 395.065 262.679C388.186 257.659 380.605 253.224 373.315 250.057C378.664 253.767 384.561 264.468 387.036 275.947C392.308 274.348 400.428 273.245 410.895 276.853C409.249 274.971 407.416 273.088 405.439 271.232Z" fill="#A7B1B9"/>
<path fill-rule="evenodd" clip-rule="evenodd" d="M575.824 170.998C591.576 170.998 604.42 183.843 604.42 199.617C604.42 215.345 591.575 228.213 575.824 228.213C560.073 228.213 547.205 215.345 547.205 199.617C547.205 183.843 560.073 170.998 575.824 170.998Z" fill="#A7B1B9"/>
<path fill-rule="evenodd" clip-rule="evenodd" d="M575.824 174.631C589.559 174.631 600.787 185.859 600.787 199.618C600.787 213.353 589.56 224.557 575.824 224.557C562.088 224.557 550.862 213.353 550.862 199.617C550.862 185.859 562.088 174.631 575.824 174.631ZM559.112 186.187L568.065 209.415L571.347 200.93H579.949L583.23 209.415L592.278 185.905C590.681 183.979 588.761 182.346 586.605 181.077L580.324 198.375H571.464L565.159 181.006C562.839 182.343 560.799 184.101 559.112 186.187ZM595.888 192.023L585.692 218.626C592.536 215.04 597.247 207.868 597.247 199.618C597.247 196.945 596.778 194.39 595.888 192.023ZM581.238 220.361L581.168 219.822L575.636 205.477L570.105 219.822L570.082 220.267C571.91 220.783 573.832 221.041 575.824 221.041C577.699 221.04 579.504 220.806 581.238 220.361ZM565.534 218.392L555.596 192.492C554.799 194.718 554.377 197.109 554.377 199.617C554.377 207.68 558.877 214.758 565.534 218.392ZM575.824 178.17C577.699 178.17 579.551 178.405 581.309 178.873L575.895 193.851L570.457 178.85C572.209 178.397 574.013 178.168 575.824 178.17Z" fill="#E8EBED"/>
<path fill-rule="evenodd" clip-rule="evenodd" d="M84.3861 294.207C76.7846 299.944 65.7277 303 56.1912 303C42.8309 303 30.8526 297.969 21.7308 289.599C21.0397 288.941 21.6386 288.048 22.514 288.565C32.3269 294.395 44.4433 297.875 56.9744 297.875C65.4053 297.875 74.7114 296.088 83.2805 292.373C84.5704 291.856 85.63 293.267 84.3861 294.207Z" fill="#A7B1B9"/>
<path fill-rule="evenodd" clip-rule="evenodd" d="M87.5651 290.493C86.5976 289.223 81.1153 289.881 78.6736 290.21C77.9364 290.305 77.7982 289.646 78.4893 289.176C82.8659 286.026 90.0068 286.966 90.8361 288.001C91.6653 289.035 90.6057 296.37 86.5055 299.85C85.8605 300.367 85.2616 300.085 85.538 299.379C86.4594 297.028 88.5326 291.809 87.5651 290.493Z" fill="#A7B1B9"/>
<path fill-rule="evenodd" clip-rule="evenodd" d="M78.8116 267.076V264.02C78.8116 263.55 79.1341 263.268 79.5487 263.268H92.9091C93.3237 263.268 93.6922 263.597 93.6922 264.02V266.606C93.6922 267.029 93.3237 267.594 92.6787 268.534L85.7682 278.596C88.3481 278.549 91.0663 278.926 93.3698 280.242C93.8765 280.524 94.0147 280.994 94.0608 281.418V284.662C94.0608 285.132 93.6001 285.649 93.0933 285.367C88.9931 283.157 83.5107 282.922 78.9959 285.414C78.5352 285.649 78.0284 285.179 78.0284 284.709V281.606C78.0284 281.135 78.0284 280.289 78.5352 279.537L86.5514 267.829H79.5948C79.1802 267.829 78.8116 267.5 78.8116 267.076ZM30.1155 286.026H26.0613C25.6927 285.979 25.3702 285.696 25.3242 285.32V264.067C25.3242 263.644 25.6927 263.315 26.1074 263.315H29.8851C30.2997 263.315 30.5762 263.644 30.6222 264.02V266.794H30.7144C31.6818 264.114 33.5707 262.845 36.0585 262.845C38.5924 262.845 40.2048 264.114 41.3105 266.794C42.278 264.114 44.5354 262.845 46.9311 262.845C48.6357 262.845 50.4785 263.55 51.6302 265.196C52.9202 266.982 52.6438 269.568 52.6438 271.872V285.32C52.6438 285.743 52.2752 286.073 51.8606 286.073H47.8525C47.4378 286.026 47.1153 285.696 47.1153 285.32V274.035C47.1153 273.142 47.2075 270.885 47.0232 270.039C46.7007 268.628 45.8254 268.205 44.6276 268.205C43.6601 268.205 42.6005 268.863 42.1858 269.945C41.7712 271.026 41.8173 272.813 41.8173 274.035V285.32C41.8173 285.743 41.4487 286.073 41.0341 286.073H36.9799C36.5653 286.026 36.2428 285.696 36.2428 285.32V274.035C36.2428 271.684 36.6114 268.158 33.755 268.158C30.8526 268.158 30.9447 271.543 30.9447 274.035V285.32C30.8987 285.696 30.5762 286.026 30.1155 286.026ZM105.21 262.845C111.245 262.845 114.516 268.111 114.516 274.835C114.516 281.324 110.922 286.496 105.21 286.496C99.3128 286.496 96.0879 281.23 96.0879 274.647C96.0418 268.017 99.3128 262.845 105.21 262.845ZM105.21 267.217C102.215 267.217 102.031 271.402 102.031 273.988C102.031 276.575 101.985 282.123 105.164 282.123C108.296 282.123 108.481 277.656 108.481 274.929C108.481 273.142 108.389 270.979 107.882 269.286C107.421 267.782 106.5 267.217 105.21 267.217ZM122.302 286.026H118.248C117.833 285.979 117.511 285.649 117.511 285.273V263.973C117.557 263.597 117.879 263.268 118.294 263.268H122.071C122.44 263.268 122.716 263.55 122.809 263.879V267.123H122.901C124.052 264.208 125.619 262.845 128.429 262.845C130.226 262.845 132.023 263.503 133.174 265.337C134.234 267.029 134.234 269.898 134.234 271.967V285.367C134.188 285.743 133.865 286.026 133.451 286.026H129.397C129.028 285.979 128.706 285.696 128.659 285.367V273.8C128.659 271.449 128.936 268.064 126.126 268.064C125.158 268.064 124.237 268.722 123.776 269.757C123.223 271.073 123.131 272.343 123.131 273.8V285.273C123.085 285.696 122.716 286.026 122.302 286.026ZM68.1694 275.869C68.1694 277.468 68.2155 278.831 67.4323 280.289C66.7873 281.465 65.7737 282.17 64.622 282.17C63.0556 282.17 62.1342 280.947 62.1342 279.161C62.1342 275.634 65.2209 274.976 68.1694 274.976V275.869ZM72.2696 285.979C71.9932 286.214 71.6246 286.261 71.3022 286.073C69.9661 284.944 69.6897 284.38 68.9526 283.298C66.7412 285.602 65.1288 286.308 62.2724 286.308C58.8632 286.308 56.1912 284.145 56.1912 279.866C56.1912 276.48 57.9879 274.223 60.5218 273.095C62.7331 272.108 65.8198 271.919 68.1694 271.637V271.12C68.1694 270.133 68.2615 268.957 67.6626 268.111C67.1559 267.359 66.2345 267.029 65.4052 267.029C63.8388 267.029 62.4567 267.829 62.1342 269.521C62.0421 269.898 61.8117 270.274 61.4432 270.274L57.5272 269.851C57.2047 269.757 56.8361 269.521 56.9283 269.004C57.8497 264.114 62.1342 262.656 66.0041 262.656C67.9851 262.656 70.565 263.174 72.1314 264.725C74.1124 266.606 73.9282 269.145 73.9282 271.872V278.314C73.9282 280.242 74.7113 281.088 75.4485 282.17C75.7249 282.546 75.771 283.016 75.4485 283.251C74.5731 283.957 73.0989 285.273 72.2696 285.979ZM14.9584 275.869C14.9584 277.468 15.0045 278.831 14.2213 280.289C13.5763 281.465 12.5627 282.17 11.411 282.17C9.8446 282.17 8.9232 280.947 8.9232 279.161C8.9232 275.634 12.0099 274.976 14.9584 274.976V275.869ZM19.0126 285.979C18.7361 286.214 18.3676 286.261 18.0451 286.073C16.7091 284.944 16.4326 284.38 15.6955 283.298C13.4841 285.602 11.8717 286.308 9.01534 286.308C5.60615 286.308 2.93408 284.145 2.93408 279.866C2.93408 276.48 4.73082 274.223 7.26467 273.095C9.47604 272.108 12.5627 271.919 14.9123 271.637V271.12C14.9123 270.133 15.0045 268.957 14.4055 268.111C13.8988 267.359 12.9774 267.029 12.1481 267.029C10.5817 267.029 9.19962 267.829 8.87713 269.521C8.78499 269.898 8.55464 270.274 8.18608 270.274L4.27012 269.851C3.94763 269.757 3.57906 269.521 3.6712 269.004C4.59261 264.114 8.87713 262.656 12.747 262.656C14.728 262.656 17.308 263.174 18.8743 264.725C20.8554 266.606 20.6711 269.145 20.6711 271.872V278.314C20.6711 280.242 21.4543 281.088 22.1914 282.17C22.4678 282.546 22.5139 283.016 22.1914 283.251C21.3161 283.957 19.8418 285.273 19.0126 285.979Z" fill="#A7B1B9"/>
<path fill-rule="evenodd" clip-rule="evenodd" d="M598.386 272.721H595.138V295.4H608.59V292.438H598.386V272.721ZM622.186 272.889C621.319 272.768 620.285 272.72 619.105 272.72H611.454V295.352H618.624C620.766 295.327 622.138 295.255 622.716 295.158C623.437 295.063 624.232 294.846 625.05 294.509C626.541 293.931 627.841 293.111 628.923 292.052C629.981 291.002 630.831 289.76 631.427 288.393C631.977 287.014 632.271 285.545 632.293 284.06C632.293 281.916 631.763 279.967 630.704 278.185C629.646 276.38 628.201 275.007 626.397 274.092C625.241 273.491 623.846 273.105 622.186 272.889ZM622.162 275.802H622.186C622.908 275.923 623.654 276.164 624.4 276.525C625.145 276.886 625.842 277.344 626.469 277.945C628.106 279.462 628.923 281.436 628.923 283.892C628.923 286.347 628.13 288.394 626.541 290.007C626.049 290.507 625.49 290.936 624.88 291.283C624.351 291.595 623.605 291.86 622.643 292.126C621.705 292.342 620.453 292.462 618.865 292.462H614.726V275.609H618.768C620.284 275.609 621.416 275.657 622.162 275.802ZM588.207 277.656C587.942 276.356 587.317 275.272 586.33 274.405C584.982 273.274 583.154 272.72 580.868 272.72H575.188V295.399H578.437V285.503H579.256C580.314 285.503 581.085 285.624 581.542 285.865C581.975 286.081 582.48 286.491 583.033 287.092C583.563 287.623 584.189 288.369 584.862 289.283L588.786 295.398H592.66L591.433 293.761C591.192 293.4 590.566 292.437 589.531 290.848C588.4 288.922 587.438 287.502 586.643 286.562C585.97 285.745 585.248 285.095 584.526 284.612C585.753 284.107 586.715 283.385 587.365 282.446C588.016 281.459 588.328 280.328 588.328 279.052C588.328 278.595 588.304 278.137 588.207 277.656ZM584.405 277.078C584.574 277.319 584.669 277.511 584.718 277.656C584.887 278.041 584.958 278.473 584.982 279.004C584.958 279.774 584.79 280.4 584.478 280.954C584.141 281.508 583.659 281.916 583.033 282.181C582.456 282.47 581.325 282.639 579.64 282.639H578.437V275.489H579.4C580.964 275.489 582.095 275.584 582.817 275.825C583.515 276.067 584.045 276.476 584.405 277.078ZM515.293 272.721H511.996L521.141 295.471H521.815L529.323 277.03L536.686 295.471H537.409L546.577 272.721H543.353L537.169 288.345L530.84 272.721H527.808L521.503 288.345L515.293 272.721ZM569.269 277.656C568.74 276.886 568.186 276.236 567.609 275.73C565.275 273.515 562.387 272.407 558.898 272.407C555.408 272.407 552.497 273.515 550.21 275.73C549.599 276.314 549.051 276.959 548.574 277.656C547.37 279.534 546.745 281.677 546.745 284.132C546.745 287.406 547.899 290.151 550.186 292.367C552.448 294.557 555.287 295.665 558.729 295.665C562.266 295.665 565.226 294.557 567.584 292.367C569.942 290.152 571.098 287.382 571.098 284.06C571.098 281.628 570.496 279.486 569.269 277.656ZM564.962 277.656L565.25 277.945C566.935 279.582 567.777 281.58 567.777 283.987C567.777 286.444 566.935 288.514 565.25 290.175C563.59 291.789 561.472 292.63 558.921 292.655C556.394 292.631 554.301 291.838 552.64 290.224C550.956 288.611 550.114 286.564 550.114 284.133C550.114 281.605 550.956 279.534 552.592 277.897L552.857 277.657C554.493 276.212 556.562 275.489 559.041 275.489C561.328 275.465 563.301 276.187 564.962 277.656ZM598.05 267.086V251.654H581.999V267.086H598.05V267.086ZM594.415 254.47V256.108C593.164 255.385 591.937 255 590.758 255C589.531 255 588.521 255.409 587.726 256.204C586.908 256.975 586.498 257.938 586.498 259.117C586.498 260.248 586.884 261.212 587.702 262.006C588.52 262.729 589.531 263.114 590.735 263.114C592.034 263.114 593.309 262.728 594.536 261.934V263.595C593.406 264.221 592.106 264.534 590.662 264.534C589.459 264.534 588.45 264.294 587.607 263.812C586.793 263.339 586.121 262.658 585.658 261.838C585.152 260.971 584.889 260.056 584.912 259.118C584.912 257.528 585.466 256.228 586.573 255.169C587.703 254.11 589.051 253.58 590.687 253.58C591.817 253.58 593.069 253.869 594.415 254.47ZM564.168 251.654V267.086H580.194V251.654H564.168ZM575.069 255.29C575.309 255.699 575.454 256.181 575.454 256.735C575.454 257.794 574.901 258.541 573.817 258.998C574.612 259.119 575.237 259.432 575.695 259.961C576.128 260.443 576.344 261.021 576.344 261.695C576.344 262.249 576.223 262.73 575.935 263.163C575.671 263.597 575.261 263.934 574.707 264.223C574.155 264.464 573.48 264.608 572.687 264.608H569.077V253.965H571.868C572.782 253.965 573.457 254.086 573.938 254.302C574.418 254.567 574.804 254.881 575.069 255.29Z" fill="#A7B1B9"/>
<path fill-rule="evenodd" clip-rule="evenodd" d="M571.916 255.314H570.593V258.54H571.603C572.398 258.515 572.999 258.347 573.336 258.058C573.697 257.746 573.866 257.335 573.866 256.854C573.866 255.819 573.215 255.313 571.916 255.314ZM573.696 260.081C573.36 259.96 572.807 259.888 572.012 259.888H570.592V263.259H572.108C572.854 263.259 573.407 263.211 573.792 263.09C574.128 262.897 574.37 262.705 574.515 262.464C574.683 262.175 574.779 261.886 574.779 261.573C574.779 261.284 574.683 260.971 574.515 260.706C574.346 260.442 574.058 260.201 573.696 260.081ZM546.24 251.654V267.086H562.29V251.654H546.24ZM557.116 255.29C557.381 255.699 557.525 256.156 557.525 256.735C557.525 257.77 556.971 258.541 555.889 258.998C556.683 259.119 557.308 259.455 557.742 259.961C558.196 260.433 558.446 261.064 558.439 261.719C558.439 262.273 558.295 262.754 558.03 263.163C557.71 263.608 557.289 263.97 556.803 264.223C556.25 264.487 555.575 264.632 554.733 264.632H551.148V253.966H553.939C554.83 253.966 555.504 254.087 555.985 254.327C556.49 254.567 556.876 254.881 557.116 255.29Z" fill="#A7B1B9"/>
<path fill-rule="evenodd" clip-rule="evenodd" d="M556.564 260.706C556.371 260.418 556.106 260.201 555.769 260.104C555.408 259.959 554.855 259.887 554.085 259.887H552.665V263.258H554.181C554.974 263.258 555.552 263.21 555.865 263.09C556.154 262.969 556.394 262.752 556.587 262.487C556.732 262.223 556.828 261.91 556.852 261.573C556.828 261.212 556.732 260.923 556.564 260.706ZM555.408 258.059C555.745 257.746 555.913 257.361 555.937 256.855C555.937 255.843 555.287 255.313 553.988 255.313H552.664V258.539H553.675C554.494 258.54 555.071 258.371 555.408 258.059Z" fill="#A7B1B9"/>
</svg>
