<svg xmlns="http://www.w3.org/2000/svg" width="82" height="61" viewBox="0 0 82 61">
    <g fill="none" fill-rule="evenodd">
        <path fill="#5CA2B2" fill-opacity=".5" d="M4.477 27.067c-6.133 10.2-4.163 18.388.073 23.064 4.235 4.676 11.257 11.342 27.652 3.8 16.394-7.542 17.504-2.244 28.7-2.2 11.197.044 28.883-7.474 16.682-21.863C65.384 15.48 59.515 8.838 47.39 6.75 35.264 4.662 10.61 16.866 4.477 27.067z"/>
        <g stroke="#353B63" stroke-width="1.5" transform="translate(10 1)">
            <circle cx="29.5" cy="29.5" r="29.5"/>
            <path d="M21 16.703v-3.225C21 12.11 22.131 11 23.527 11h11.055c1.619 0 2.93 1.287 2.93 2.874v2.832M31.943 34.471v3.307a.943.943 0 0 1-.286.675.98.98 0 0 1-.689.277h-2.66a.965.965 0 0 1-.974-.952v-3.307a.097.097 0 0 0-.085-.096L14 33v9.281c0 .254.1.497.283.677.182.18.43.281.688.282h29.335a.965.965 0 0 0 .97-.955v-9.282l-13.249 1.375a.097.097 0 0 0-.084.093z"/>
            <path d="M30.077 17H13.782a.774.774 0 0 0-.782.767v14.78a.78.78 0 0 0 .701.764l13.796 1.506v-2.372c0-.204.083-.4.23-.544a.79.79 0 0 1 .555-.223h3.036a.79.79 0 0 1 .555.223.76.76 0 0 1 .23.544v2.368l13.576-1.481a1.04 1.04 0 0 0 .918-.994V17.767a.774.774 0 0 0-.768-.767H30.077zM34.508 16.853v-2.272a.572.572 0 0 0-.172-.412.595.595 0 0 0-.42-.169h-9.324a.595.595 0 0 0-.42.17.572.572 0 0 0-.172.41v2.273"/>
        </g>
    </g>
</svg>
