<svg width="74" height="65" viewBox="0 0 74 65" fill="none" xmlns="http://www.w3.org/2000/svg">
<g clip-path="url(#clip0)">
<path d="M34.0074 51.3228H1.3654C0.611675 51.3228 0 50.6352 0 49.7879V1.53489C0 0.687607 0.611675 0 1.3654 0H28.9951C32.5115 0 35.3728 3.21643 35.3728 7.16936V49.7879C35.3728 50.6352 34.7582 51.3228 34.0074 51.3228ZM2.31915 48.7158H33.0536V7.16936C33.0536 4.65356 31.2331 2.60704 28.9951 2.60704H2.31915V48.7158Z" fill="#5CA2B2"/>
<path d="M66.9045 51.3228H34.5727C33.7349 51.3228 33.0536 50.557 33.0536 49.6152V7.16936C33.0536 3.21643 35.9149 0 39.4313 0H66.9074C67.7452 0 68.4264 0.765818 68.4264 1.70761V49.612C68.4264 50.557 67.7423 51.3228 66.9045 51.3228ZM35.3728 48.7158H66.1073V2.60704H39.4313C37.1933 2.60704 35.3728 4.65356 35.3728 7.16936V48.7158Z" fill="#5CA2B2"/>
<path d="M17.6864 41.2825H7.74306C6.40665 41.2825 5.31665 40.0604 5.31665 38.5549V34.0284C5.31665 32.5228 6.40375 31.3008 7.74306 31.3008H17.6864C19.0228 31.3008 20.1128 32.5228 20.1128 34.0284V38.5549C20.1128 40.0604 19.0228 41.2825 17.6864 41.2825ZM7.74306 33.2593C7.3633 33.2593 7.05601 33.6048 7.05601 34.0317V38.5581C7.05601 38.985 7.3633 39.3305 7.74306 39.3305H17.6864C18.0662 39.3305 18.3734 38.985 18.3734 38.5581V34.0317C18.3734 33.6048 18.0662 33.2593 17.6864 33.2593H7.74306Z" fill="#5CA2B2"/>
<path d="M11.8769 11.5687H6.58635C6.10513 11.5687 5.71667 11.132 5.71667 10.591C5.71667 10.0501 6.10513 9.6134 6.58635 9.6134H11.8798C12.361 9.6134 12.7495 10.0501 12.7495 10.591C12.7495 11.132 12.3581 11.5687 11.8769 11.5687Z" fill="#5CA2B2"/>
<path d="M61.6081 11.497H56.5118C56.0306 11.497 55.6421 11.0603 55.6421 10.5194C55.6421 9.97843 56.0306 9.54175 56.5118 9.54175H61.6081C62.0893 9.54175 62.4778 9.97843 62.4778 10.5194C62.4778 11.0603 62.0893 11.497 61.6081 11.497Z" fill="#5CA2B2"/>
<path d="M27.9747 34.4846H22.5827C22.1015 34.4846 21.713 34.0479 21.713 33.5069C21.713 32.966 22.1015 32.5293 22.5827 32.5293H27.9747C28.4559 32.5293 28.8444 32.966 28.8444 33.5069C28.8444 34.0479 28.4559 34.4846 27.9747 34.4846Z" fill="#5CA2B2"/>
<path d="M27.9747 40.1224H22.5827C22.1015 40.1224 21.713 39.6857 21.713 39.1448C21.713 38.6038 22.1015 38.1671 22.5827 38.1671H27.9747C28.4559 38.1671 28.8444 38.6038 28.8444 39.1448C28.8444 39.6857 28.4559 40.1224 27.9747 40.1224Z" fill="#5CA2B2"/>
<path d="M28.1399 11.5687H14.5613C14.0801 11.5687 13.6917 11.132 13.6917 10.591C13.6917 10.0501 14.0801 9.6134 14.5613 9.6134H28.1399C28.6212 9.6134 29.0096 10.0501 29.0096 10.591C29.0096 11.132 28.6212 11.5687 28.1399 11.5687Z" fill="#5CA2B2"/>
<path d="M53.9955 11.497H40.9213C40.4401 11.497 40.0516 11.0603 40.0516 10.5194C40.0516 9.97843 40.4401 9.54175 40.9213 9.54175H53.9955C54.4767 9.54175 54.8652 9.97843 54.8652 10.5194C54.8652 11.0603 54.4767 11.497 53.9955 11.497Z" fill="#5CA2B2"/>
<path d="M28.0588 19.0607H6.50524C6.02402 19.0607 5.63556 18.6241 5.63556 18.0831C5.63556 17.5421 6.02402 17.1055 6.50524 17.1055H28.0588C28.54 17.1055 28.9285 17.5421 28.9285 18.0831C28.9285 18.6241 28.54 19.0607 28.0588 19.0607Z" fill="#5CA2B2"/>
<path d="M28.1399 26.4713H6.58635C6.10513 26.4713 5.71667 26.0346 5.71667 25.4936C5.71667 24.9527 6.10513 24.516 6.58635 24.516H28.1399C28.6211 24.516 29.0096 24.9527 29.0096 25.4936C29.0096 26.0346 28.6211 26.4713 28.1399 26.4713Z" fill="#5CA2B2"/>
<path d="M61.7212 18.5783H40.9677C40.4865 18.5783 40.098 18.1416 40.098 17.6007C40.098 17.0597 40.4865 16.623 40.9677 16.623H61.7212C62.2024 16.623 62.5908 17.0597 62.5908 17.6007C62.5908 18.1416 62.2024 18.5783 61.7212 18.5783Z" fill="#5CA2B2"/>
<path d="M61.7995 25.5848H41.046C40.5648 25.5848 40.1763 25.1481 40.1763 24.6072C40.1763 24.0662 40.5648 23.6295 41.046 23.6295H61.7995C62.2807 23.6295 62.6691 24.0662 62.6691 24.6072C62.6691 25.1481 62.2778 25.5848 61.7995 25.5848Z" fill="#5CA2B2"/>
<path d="M61.6429 32.5913H40.8895C40.4082 32.5913 40.0198 32.1546 40.0198 31.6136C40.0198 31.0727 40.4082 30.636 40.8895 30.636H61.6429C62.1241 30.636 62.5126 31.0727 62.5126 31.6136C62.5126 32.1546 62.1241 32.5913 61.6429 32.5913Z" fill="#5CA2B2"/>
<path d="M61.7995 39.8974H41.046C40.5648 39.8974 40.1763 39.4607 40.1763 38.9198C40.1763 38.3788 40.5648 37.9421 41.046 37.9421H61.7995C62.2807 37.9421 62.6691 38.3788 62.6691 38.9198C62.6691 39.4607 62.2778 39.8974 61.7995 39.8974Z" fill="#5CA2B2"/>
<path d="M51.1546 44.4565C49.6674 45.1572 48.3136 45.9588 46.8757 46.4411C38.35 49.3056 29.3401 42.8141 28.0791 32.9562C26.905 23.8023 32.1752 15.564 40.2604 13.9151C48.3397 12.2661 56.2712 18.699 57.4626 27.853C57.9931 31.9232 57.3061 35.7034 55.3986 39.2033C55.2015 39.5651 55.1986 39.7834 55.4914 40.0474C55.7117 40.2429 55.9001 40.4841 56.0943 40.7154C56.6712 41.403 57.1988 42.0646 58.2106 41.9733C58.9933 41.9049 59.6803 42.4393 60.2746 43.0422C64.2751 47.0962 68.2843 51.1371 72.282 55.1943C73.946 56.8856 73.9923 59.5219 72.4095 61.3241C71.7022 62.129 70.9919 62.9307 70.273 63.7258C68.6931 65.4725 66.345 65.4269 64.8578 63.5792C61.2457 59.0885 57.6511 54.5784 54.0448 50.0845C53.323 49.185 52.9751 48.1422 53.0041 46.9332C53.007 46.7703 52.9867 46.5519 52.8939 46.4444C52.2938 45.7242 51.6648 45.0333 51.1546 44.4565ZM29.8329 30.3524C29.8329 38.3952 35.5902 44.8574 42.7795 44.8737C49.8645 44.8899 55.645 38.3984 55.6566 30.4078C55.6682 22.3488 49.9051 15.8508 42.7505 15.8508C35.6192 15.8508 29.8329 22.3488 29.8329 30.3524ZM54.0245 41.6051C53.5694 42.1004 53.1461 42.5664 52.7924 42.951C53.1606 43.3811 53.5694 43.8602 53.952 44.3066C54.355 43.8537 54.7753 43.3844 55.1667 42.9477C54.7666 42.4817 54.3579 41.9994 54.0245 41.6051Z" fill="#5CA2B2"/>
<g opacity="0.96">
<path opacity="0.96" d="M42.6578 44.8867C49.8352 44.8867 55.6537 38.346 55.6537 30.2775C55.6537 22.2091 49.8352 15.6683 42.6578 15.6683C35.4803 15.6683 29.6619 22.2091 29.6619 30.2775C29.6619 38.346 35.4803 44.8867 42.6578 44.8867Z" fill="white"/>
</g>
<path d="M37.2136 25.8977C37.2136 25.1156 37.4368 24.3237 37.8833 23.522C38.3297 22.7204 38.982 22.0556 39.8372 21.5276C40.6923 20.9997 41.6925 20.739 42.8347 20.739C43.8957 20.739 44.832 20.9606 45.6466 21.4005C46.4583 21.8405 47.0874 22.4401 47.5309 23.1961C47.9745 23.9522 48.1948 24.7767 48.1948 25.6663C48.1948 26.367 48.0672 26.9796 47.815 27.5043C47.5628 28.0322 47.2613 28.4852 46.9135 28.8665C46.5656 29.2477 45.9423 29.893 45.0407 30.7989C44.7914 31.0531 44.5914 31.278 44.4436 31.4702C44.2928 31.6625 44.1827 31.8417 44.1102 32.0014C44.0377 32.1611 43.9797 32.3208 43.9391 32.4837C43.8986 32.6434 43.8377 32.9269 43.7594 33.3278C43.6203 34.1848 43.1854 34.6117 42.452 34.6117C42.0722 34.6117 41.7505 34.4716 41.4924 34.1913C41.2344 33.9111 41.104 33.4972 41.104 32.9432C41.104 32.2523 41.1997 31.6527 41.391 31.1476C41.5823 30.6425 41.8345 30.196 42.1476 29.8148C42.4607 29.4335 42.8868 28.9773 43.4202 28.4493C43.8899 27.9898 44.2261 27.6411 44.4349 27.4065C44.6436 27.1719 44.8204 26.9112 44.9625 26.6211C45.1045 26.3344 45.177 26.0215 45.177 25.6826C45.177 25.0243 44.9596 24.4703 44.5247 24.0174C44.0899 23.5644 43.5275 23.3395 42.8405 23.3395C42.0345 23.3395 41.4432 23.5677 41.0605 24.0239C40.6807 24.4801 40.359 25.1514 40.0952 26.0411C39.8459 26.9698 39.3733 27.4358 38.6776 27.4358C38.2659 27.4358 37.921 27.2729 37.6398 26.947C37.3528 26.6309 37.2136 26.279 37.2136 25.8977ZM42.5709 39.4282C42.1244 39.4282 41.7331 39.2653 41.4026 38.9394C41.0692 38.6135 40.904 38.1606 40.904 37.574C40.904 37.0558 41.0663 36.6191 41.3881 36.2672C41.7099 35.9152 42.1041 35.736 42.5737 35.736C43.0347 35.736 43.4231 35.912 43.7362 36.2672C44.0493 36.6224 44.2087 37.0558 44.2087 37.574C44.2087 38.1508 44.0435 38.6037 43.713 38.9329C43.3854 39.262 43.0028 39.4282 42.5709 39.4282Z" fill="#5CA2B2"/>
</g>
<defs>
<clipPath id="clip0">
<rect width="73.5633" height="65" fill="white"/>
</clipPath>
</defs>
</svg>
