<svg width="70" height="73" viewBox="0 0 70 73" fill="none" xmlns="http://www.w3.org/2000/svg">
<g clip-path="url(#clip0)">
<path d="M54.2416 59.5145H8.22461C3.6907 59.5145 0 55.822 0 51.2859V13.8485C0 9.31244 3.6907 5.61996 8.22461 5.61996H54.2416C58.7755 5.61996 62.4662 9.31244 62.4662 13.8485V51.2892C62.4662 55.822 58.7755 59.5145 54.2416 59.5145ZM8.22461 8.21573C5.12092 8.21573 2.59451 10.7401 2.59451 13.8485V51.2892C2.59451 54.3944 5.12092 56.922 8.22461 56.922H54.2416C57.3453 56.922 59.8717 54.3944 59.8717 51.2892V13.8485C59.8717 10.7434 57.3453 8.21573 54.2416 8.21573H8.22461Z" fill="#FF62BA"/>
<path d="M17.0492 12.1938C16.1541 12.1938 15.4276 11.4669 15.4276 10.5714V1.67118C15.4276 0.775642 16.1541 0.0488281 17.0492 0.0488281C17.9443 0.0488281 18.6708 0.775642 18.6708 1.67118V10.5714C18.6708 11.4669 17.9443 12.1938 17.0492 12.1938Z" fill="#FF62BA"/>
<path d="M45.9812 12.1938C45.0861 12.1938 44.3597 11.4669 44.3597 10.5714V1.67118C44.3597 0.775642 45.0861 0.0488281 45.9812 0.0488281C46.8764 0.0488281 47.6028 0.775642 47.6028 1.67118V10.5714C47.6028 11.4669 46.8764 12.1938 45.9812 12.1938Z" fill="#FF62BA"/>
<path d="M61.1689 16.8272H1.29724V19.423H61.1689V16.8272Z" fill="#FF62BA"/>
<path d="M14.7466 30.283C16.2798 30.283 17.5227 29.0394 17.5227 27.5055C17.5227 25.9715 16.2798 24.728 14.7466 24.728C13.2134 24.728 11.9705 25.9715 11.9705 27.5055C11.9705 29.0394 13.2134 30.283 14.7466 30.283Z" fill="#FF62BA"/>
<path d="M31.6369 30.3674C33.1701 30.3674 34.413 29.1239 34.413 27.5899C34.413 26.056 33.1701 24.8124 31.6369 24.8124C30.1036 24.8124 28.8607 26.056 28.8607 27.5899C28.8607 29.1239 30.1036 30.3674 31.6369 30.3674Z" fill="#FF62BA"/>
<path d="M48.5239 30.283C50.0571 30.283 51.3001 29.0394 51.3001 27.5055C51.3001 25.9715 50.0571 24.728 48.5239 24.728C46.9907 24.728 45.7478 25.9715 45.7478 27.5055C45.7478 29.0394 46.9907 30.283 48.5239 30.283Z" fill="#FF62BA"/>
<path d="M14.7466 40.2734C16.2798 40.2734 17.5227 39.0299 17.5227 37.496C17.5227 35.962 16.2798 34.7185 14.7466 34.7185C13.2134 34.7185 11.9705 35.962 11.9705 37.496C11.9705 39.0299 13.2134 40.2734 14.7466 40.2734Z" fill="#FF62BA"/>
<path d="M31.6369 40.3578C33.1701 40.3578 34.413 39.1143 34.413 37.5803C34.413 36.0464 33.1701 34.8029 31.6369 34.8029C30.1036 34.8029 28.8607 36.0464 28.8607 37.5803C28.8607 39.1143 30.1036 40.3578 31.6369 40.3578Z" fill="#FF62BA"/>
<path d="M14.7466 50.1763C16.2798 50.1763 17.5227 48.9328 17.5227 47.3988C17.5227 45.8649 16.2798 44.6213 14.7466 44.6213C13.2134 44.6213 11.9705 45.8649 11.9705 47.3988C11.9705 48.9328 13.2134 50.1763 14.7466 50.1763Z" fill="#FF62BA"/>
<path d="M31.6369 50.2606C33.1701 50.2606 34.413 49.0171 34.413 47.4832C34.413 45.9492 33.1701 44.7057 31.6369 44.7057C30.1036 44.7057 28.8607 45.9492 28.8607 47.4832C28.8607 49.0171 30.1036 50.2606 31.6369 50.2606Z" fill="#FF62BA"/>
<path d="M48.5239 40.2734C50.0571 40.2734 51.3001 39.0299 51.3001 37.496C51.3001 35.962 50.0571 34.7185 48.5239 34.7185C46.9907 34.7185 45.7478 35.962 45.7478 37.496C45.7478 39.0299 46.9907 40.2734 48.5239 40.2734Z" fill="#FF62BA"/>
<path d="M54.4718 70.751C62.3313 70.751 68.7027 64.3765 68.7027 56.5132C68.7027 48.6499 62.3313 42.2754 54.4718 42.2754C46.6123 42.2754 40.2409 48.6499 40.2409 56.5132C40.2409 64.3765 46.6123 70.751 54.4718 70.751Z" fill="white"/>
<path d="M54.4718 72.0488C45.9099 72.0488 38.9437 65.0792 38.9437 56.5132C38.9437 47.9472 45.9099 40.9775 54.4718 40.9775C63.0337 40.9775 70 47.9472 70 56.5132C70 65.0792 63.0337 72.0488 54.4718 72.0488ZM54.4718 43.5733C47.3402 43.5733 41.5382 49.3781 41.5382 56.5132C41.5382 63.6483 47.3402 69.4531 54.4718 69.4531C61.6035 69.4531 67.4055 63.6483 67.4055 56.5132C67.4055 49.3781 61.6035 43.5733 54.4718 43.5733Z" fill="#FF62BA"/>
<path d="M62.9202 57.8111H54.4718C53.7551 57.8111 53.1746 57.2303 53.1746 56.5132V47.3988C53.1746 46.6818 53.7551 46.101 54.4718 46.101C55.1886 46.101 55.7691 46.6818 55.7691 47.3988V55.2153H62.9202C63.6369 55.2153 64.2175 55.7961 64.2175 56.5132C64.2175 57.2303 63.6337 57.8111 62.9202 57.8111Z" fill="#FF62BA"/>
</g>
<defs>
<clipPath id="clip0">
<rect width="70" height="72" fill="white" transform="translate(0 0.0488281)"/>
</clipPath>
</defs>
</svg>
