<svg xmlns="http://www.w3.org/2000/svg" width="119" height="70" viewBox="0 0 119 70">
    <g fill="none" fill-rule="evenodd">
        <path fill="#2F6690" fill-opacity=".2" d="M116.918 68.398c-1.645 1.148-3.655 1.555-5.767 1.595-3.657.07-7.234-.416-10.722-1.322-5.398-1.401-10.882-1.639-16.387-1.306-2.826.171-5.643.212-8.409-.141-2.824-.361-5.565-1.158-8.065-2.686-2-1.223-3.706-2.746-5.51-4.177-.17-.2-.478-.193-.645-.398-.896-.742-1.753-1.528-2.76-2.144-.927-.567-1.934-.954-2.95-1.33-.373-.293-.863-.233-1.28-.393-2.104-.413-4.214-.14-6.306.04a36.789 36.789 0 0 0-3.611.49c-3.229.605-6.262.132-9.207-1.181-3.755-1.675-6.683-4.24-8.914-7.574-.224-.336-.649-.528-.76-.95-.143-.222-.474-.2-.606-.437-1.325-2.137-2.508-4.373-4.013-6.385-1.766-2.36-3.27-4.908-5.595-6.893-1.556-1.329-3.201-2.484-4.92-3.581-2.792-1.784-5.73-3.346-7.95-5.898-2-2.3-3.02-4.798-2.32-7.726.34-1.426 1.089-2.719 2.527-3.597 1.346-.821 2.472-1.966 3.831-2.8.17-.2.47-.2.65-.386.917-.61 1.812-1.253 2.755-1.822 1.748-1.055 3.47-2.168 5.304-3.068 2.105-1.033 4.155-2.237 6.527-2.687.264-.177.61-.182.86-.386C25.509.519 28.35-.143 31.325.027c2.208.126 4.318.616 6.394 1.342 2.979 1.041 5.563 2.815 8.406 4.092 2.573 1.156 5.225 2.031 8.118 2.394 3.035.381 6.048.34 9.06.26 2.286-.061 4.575-.198 6.858-.122 3.02.1 6.032.367 8.84 1.605.284.125.551.286.827.43.227.247.614.174.854.395l1.892 1.236c.332.362.836.551 1.078 1.002.35.208.624.486.843.818.156.212.475.2.622.422 1.79 1.894 2.874 4.262 4.569 6.235 1.101 1.282 1.799 2.877 2.793 4.255 2.582 3.583 5.994 6.179 10.237 7.746 3.753 1.386 6.408 3.767 7.402 7.636.196.322.108.747.405 1.032.423 1.671.849 3.312 1.78 4.844.856 1.409 1.373 3.009 2.038 4.525.148.337.287.678.43 1.016.267.213.178.594.416.822.831 2.151 2.308 4.332 2.917 6.57 0 0 1.401 4.047.7 6.408-.49 1.654-.968 2.768-1.885 3.408"/>
        <path fill="#223C50" fill-rule="nonzero" d="M62 64.672c-16.569 0-30-13.582-30-30.336C32 17.582 45.431 4 62 4c16.569 0 30 13.582 30 30.336 0 16.754-13.431 30.336-30 30.336zm0-1.576c15.708 0 28.442-12.876 28.442-28.76 0-15.884-12.734-28.76-28.442-28.76s-28.442 12.876-28.442 28.76c0 15.884 12.734 28.76 28.442 28.76zM48.364 31.578v-.59c0-.436.349-.789.779-.789.43 0 .78.353.78.788v.591h3.916a15.836 15.836 0 0 1-.372-2.493c-.56-8.097 5.111-15.18 12.886-16.447l-1.648-1.083a.793.793 0 0 1-.23-1.09.774.774 0 0 1 1.079-.231l3.92 2.575-2.546 3.965a.774.774 0 0 1-1.078.231.793.793 0 0 1-.229-1.09l1.12-1.744c-7.058 1.077-12.226 7.479-11.72 14.804.062.896.206 1.766.424 2.603h5.386v-.59c0-.436.349-.789.78-.789.43 0 .779.353.779.788v.591h3.7c1.4 0 2.533 1.147 2.533 2.56v7.847c.384.005.771-.006 1.16-.034 7.287-.515 12.86-6.648 12.868-13.921L82.65 28a14.414 14.414 0 0 0-.034-.976.785.785 0 0 1 .723-.841.782.782 0 0 1 .836.78c.01.162.018.324.024.486.297 8.346-6.005 15.487-14.307 16.074-.426.03-.849.043-1.269.038v6.337c0 1.414-1.133 2.56-2.532 2.56H44.662c-1.398 0-2.532-1.146-2.532-2.56v-15.76c0-1.413 1.134-2.56 2.532-2.56h3.702zm14.026 1.576v.197a.784.784 0 0 1-.78.788.784.784 0 0 1-.779-.788v-.197H49.922v.197a.784.784 0 0 1-.78.788.784.784 0 0 1-.778-.788v-.197h-3.702a.98.98 0 0 0-.974.985v15.759a.98.98 0 0 0 .974.985h21.429a.98.98 0 0 0 .974-.985v-15.76a.98.98 0 0 0-.974-.984H62.39zm21.277-9.259a.789.789 0 0 1-.546.968.778.778 0 0 1-.957-.553c-.081-.3-.172-.597-.273-.89a.79.79 0 0 1 .482-1.003.777.777 0 0 1 .991.486c.112.327.213.658.303.992zm-1.596-3.813a.793.793 0 0 1-.274 1.08.774.774 0 0 1-1.067-.277 14.02 14.02 0 0 0-.497-.786.793.793 0 0 1 .202-1.096.774.774 0 0 1 1.084.204c.193.286.377.578.552.875zm-2.543-3.259a.794.794 0 0 1 .017 1.114.773.773 0 0 1-1.102.018c-.22-.217-.449-.426-.683-.627a.794.794 0 0 1-.09-1.11.773.773 0 0 1 1.098-.092c.26.224.514.457.76.697zm-3.282-2.456c.377.21.514.69.306 1.07a.775.775 0 0 1-1.059.31c-.27-.15-.543-.292-.822-.424a.792.792 0 0 1-.375-1.047.776.776 0 0 1 1.036-.38c.31.147.615.304.914.47zm-3.827-1.501a.788.788 0 0 1 .576.95.779.779 0 0 1-.939.582c-.298-.072-.6-.134-.903-.186a.787.787 0 0 1-.638-.91.78.78 0 0 1 .899-.644c.338.058.673.127 1.005.208zm-4.674 15.575a.791.791 0 0 1-.096-.378v-8.107c0-.435.35-.788.78-.788.43 0 .779.353.779.788v7.888l4.957 2.894c.373.217.5.7.285 1.076a.775.775 0 0 1-1.064.289l-5.257-3.07a.787.787 0 0 1-.384-.592zM43.688 36.7h23.377v1.576H43.688V36.7zm5.455 5.121a.784.784 0 0 1-.78-.788c0-.435.35-.788.78-.788.43 0 .78.353.78.788a.784.784 0 0 1-.78.788zm3.117 0a.784.784 0 0 1-.78-.788c0-.435.35-.788.78-.788.43 0 .779.353.779.788a.784.784 0 0 1-.78.788zm3.117 0a.784.784 0 0 1-.78-.788c0-.435.35-.788.78-.788.43 0 .779.353.779.788a.784.784 0 0 1-.78.788zm3.117 0a.784.784 0 0 1-.78-.788c0-.435.35-.788.78-.788.43 0 .779.353.779.788a.784.784 0 0 1-.78.788zm3.116 0a.784.784 0 0 1-.779-.788c0-.435.349-.788.78-.788.43 0 .779.353.779.788a.784.784 0 0 1-.78.788zm-12.467 3.546a.784.784 0 0 1-.78-.788c0-.435.35-.788.78-.788.43 0 .78.353.78.788a.784.784 0 0 1-.78.788zm3.117 0a.784.784 0 0 1-.78-.788c0-.435.35-.788.78-.788.43 0 .779.353.779.788a.784.784 0 0 1-.78.788zm3.117 0a.784.784 0 0 1-.78-.788c0-.435.35-.788.78-.788.43 0 .779.353.779.788a.784.784 0 0 1-.78.788zm3.117 0a.784.784 0 0 1-.78-.788c0-.435.35-.788.78-.788.43 0 .779.353.779.788a.784.784 0 0 1-.78.788zm3.116 0a.784.784 0 0 1-.779-.788c0-.435.349-.788.78-.788.43 0 .779.353.779.788a.784.784 0 0 1-.78.788zm-12.467 3.546a.784.784 0 0 1-.78-.788c0-.435.35-.788.78-.788.43 0 .78.353.78.788a.784.784 0 0 1-.78.788zm3.117 0a.784.784 0 0 1-.78-.788c0-.435.35-.788.78-.788.43 0 .779.353.779.788a.784.784 0 0 1-.78.788zm3.117 0a.784.784 0 0 1-.78-.788c0-.435.35-.788.78-.788.43 0 .779.353.779.788a.784.784 0 0 1-.78.788z"/>
    </g>
</svg>
