<svg xmlns="http://www.w3.org/2000/svg" width="96" height="67" viewBox="0 0 96 67">
    <g fill="none" fill-rule="evenodd">
        <path fill="#5CA2B2" fill-opacity=".4" d="M95.831 27.855c.61 5.393-.38 9.135-3.827 15.111-3.447 5.977-8.736 10.84-17.316 15.902-8.58 5.06-25.239 7.494-31.791 8.02-6.553.525-17.506-.705-24.846-5.597C10.71 56.4 6.204 52.721 2.542 45.693c-3.662-7.027-2.954-18.976-.484-25.226S7.09 9.928 11.945 5.915C16.8 1.9 23.27-2.2 32.082 1.36c8.813 3.56 3.025 19.562 21.416 20.352 18.392.79 16.586-7.794 23.157-8.47 6.571-.675 9.564.671 13.34 3.58 3.775 2.91 5.226 5.638 5.836 11.032z"/>
        <g transform="translate(12 2.806)">
            <path fill="#000" fill-rule="nonzero" d="M41.687 24.415c-.386-.195-1.012-.195-1.398 0-.385.195-.385.512 0 .707l.047.023c.19.09.433.135.675.135.264 0 .527-.053.722-.158.373-.202.353-.518-.046-.707zM40.63 23.013a14.117 14.117 0 0 0-1.47-.708c-2.796-1.147-5.758-1.377-8.567-.666-.444.113-.693.498-.555.86.138.362.61.565 1.054.452 2.385-.603 4.912-.402 7.31.581.423.174.866.388 1.283.618.144.08.309.119.472.119.27 0 .535-.106.698-.302.26-.313.16-.74-.224-.954z"/>
            <path fill="#223C50" fill-rule="nonzero" d="M48.064 33.588c-.34-.718-.906-1.906-.916-2.299.973-2.404.618-5.065-1.003-7.498-2.493-3.743-7.603-6.46-12.15-6.46-2.403 0-4.75.574-6.861 1.67-.606-3.325-3.517-5.855-7.008-5.855-3.93 0-7.126 3.203-7.126 7.14a7.101 7.101 0 0 0 3.408 6.093c.615.378.754.704.803 1.24v4.88c0 .932.756 1.69 1.685 1.69h.283a14.865 14.865 0 0 0 5.02 9.406c.026.082.103.468-.227 1.62-.258.899-.653 1.896-1.002 2.776-.233.589-.435 1.098-.557 1.482a.836.836 0 0 0 .793 1.087h11.882c.39 0 .926-.175 1.264-1.01.147-.363.242-.8.344-1.263.099-.45.33-1.506.561-1.634 0 0 .014-.002.047.003.042.007.086.01.129.01 1.244 0 2.26.057 3.158.106 2.63.147 4.219.235 5.612-1.776.708-1.023.628-2.514.543-4.094-.044-.814-.089-1.654-.009-2.352.146-.143.51-.394.737-.55.785-.54 1.526-1.05 1.526-1.826 0-.59-.355-1.367-.936-2.586zm-30.433-8.104A5.548 5.548 0 0 1 15 20.734c0-3.07 2.467-5.566 5.5-5.566s5.5 2.497 5.5 5.566a5.548 5.548 0 0 1-2.631 4.75c-.783.486-1.249 1.053-1.47 1.818h-2.798c-.221-.765-.687-1.332-1.47-1.818zM21 28.314v1.01h-2v-1.01h2zm-1.984 4.044c-.007 0-.016-.01-.016-.017v-.994h2v.994c0 .008-.009.017-.017.017h-1.967zM46.235 37.1c-.704.5-1.312.933-1.402 1.587-.123.896-.072 1.888-.022 2.846.062 1.19.133 2.537-.244 3.098-.814 1.213-1.518 1.225-4.081 1.078a53.694 53.694 0 0 0-3.14-.11c-.478-.06-1.286.034-1.826 1.119-.274.551-.421 1.243-.551 1.854-.066.307-.157.739-.243.978H24.485l.11-.29c1.18-3.07 1.926-5.322.79-6.338-2.409-2.155-3.945-5.074-4.385-8.294h.487c.913 0 1.657-.769 1.657-1.714v-4.952c.048-.543.185-.875.79-1.259 1.936-1.227 3.151-3.293 3.326-5.603a12.67 12.67 0 0 1 6.652-1.886c3.898 0 8.447 2.494 10.581 5.802.915 1.418 1.799 3.624.813 6.08-.321.799.155 1.908.958 3.651.26.564.636 1.381.736 1.763-.169.167-.532.425-.765.59z"/>
            <path fill="#000" fill-rule="nonzero" d="M23.883 19.167c-.238-.818-.829-1.472-1.709-1.894-.395-.188-.88-.045-1.084.322-.204.366-.049.817.346 1.006.48.23.773.542.893.954.19.653-.098 1.36-.224 1.543-.239.348-.128.81.246 1.031.134.08.284.117.432.117a.821.821 0 0 0 .68-.345c.343-.5.738-1.64.42-2.734zM20 8.09c-.552 0-1 .373-1 .833V11.3c0 .46.448.834 1 .834s1-.373 1-.834V8.923c0-.46-.448-.833-1-.833zM11.175 19.213h-2.35c-.456 0-.825.453-.825 1.01 0 .56.37 1.012.825 1.012h2.35c.456 0 .825-.453.825-1.011 0-.558-.37-1.011-.825-1.011zM15.882 12.127l-1.248-1.676c-.241-.324-.777-.435-1.196-.248-.419.188-.562.603-.32.927l1.248 1.676c.162.218.456.34.759.34.148 0 .3-.03.437-.092.419-.187.562-.602.32-.927zM12.664 14.526l-1.657-1.262c-.32-.244-.732-.099-.917.324-.185.424-.075.966.246 1.21l1.657 1.262a.55.55 0 0 0 .335.12c.232 0 .458-.16.582-.444.185-.423.075-.965-.246-1.21zM30.88 13.588a.9.9 0 0 0-1.223-.324l-2.21 1.262a.88.88 0 0 0-.327 1.21.896.896 0 0 0 1.223.324l2.21-1.262a.88.88 0 0 0 .327-1.21zM12.91 24.712c-.185-.424-.596-.569-.917-.325l-1.657 1.262c-.321.245-.431.787-.246 1.21.124.284.35.443.582.443a.55.55 0 0 0 .335-.118l1.657-1.263c.321-.244.431-.786.246-1.21zM15.69 27.434c-.298-.271-.678-.11-.85.36l-.757 2.078c-.171.47-.07 1.072.228 1.343.098.09.204.132.31.132.214 0 .423-.176.538-.492l.758-2.077c.171-.47.07-1.072-.228-1.344zM26.562 10.203c-.42-.187-.955-.076-1.196.249l-1.248 1.675c-.242.325-.099.74.32.927.138.062.289.092.437.092.303 0 .597-.122.76-.34l1.247-1.676c.242-.324.099-.74-.32-.927z"/>
            <ellipse cx="29.5" cy="29.83" stroke="#223C50" stroke-width="1.5" rx="29.5" ry="29.83"/>
        </g>
    </g>
</svg>
