<svg width="68" height="69" viewBox="0 0 68 69" fill="none" xmlns="http://www.w3.org/2000/svg">
<g clip-path="url(#clip0)">
<path d="M40.0968 52.7449C39.7821 52.7449 39.4675 52.6676 39.1805 52.5158L28.2317 46.7447C27.6935 46.4604 27.4865 45.7925 27.7708 45.2543C28.055 44.7161 28.7229 44.5091 29.2611 44.7934L40.0002 50.4541L47.6922 35.8594L17.4927 19.9427L9.79787 34.5401L20.581 40.5237C21.1137 40.8191 21.3069 41.4925 21.0116 42.0252C20.7163 42.5578 20.0429 42.751 19.5102 42.4557L8.53933 36.37C7.59818 35.876 7.22834 34.6809 7.73618 33.7177L15.649 18.7035C15.8946 18.237 16.3059 17.8948 16.8109 17.7402C17.3133 17.5857 17.8459 17.6354 18.3124 17.8782L48.9314 34.0158C49.8919 34.5208 50.2617 35.7159 49.7566 36.6791L41.8438 51.6933C41.5982 52.1598 41.1869 52.502 40.6819 52.6565C40.4887 52.7145 40.2927 52.7449 40.0968 52.7449ZM9.59087 34.427L9.59915 34.4325C9.59639 34.4297 9.59363 34.427 9.59087 34.427Z" fill="#197EFF"/>
<path d="M34 68.0488C15.2516 68.0488 0 52.7973 0 34.0488C0 15.3004 15.2516 0.0488281 34 0.0488281C52.7484 0.0488281 68 15.3004 68 34.0488C68 52.7973 52.7484 68.0488 34 68.0488ZM34 2.2568C16.4687 2.2568 2.20797 16.5175 2.20797 34.0488C2.20797 51.5801 16.4687 65.8409 34 65.8409C51.5313 65.8409 65.792 51.5801 65.792 34.0488C65.792 16.5175 51.5313 2.2568 34 2.2568Z" fill="#197EFF"/>
<path d="M46.2736 29.4949L55.9279 40.3582C56.2481 40.7142 56.2177 41.2634 55.8589 41.5836L43.2128 52.8994C42.8568 53.2196 42.3075 53.1892 41.9874 52.8304L18.9085 27.0386C18.5884 26.6825 18.6187 26.1333 18.9775 25.8131L31.6237 14.4973C31.9797 14.1771 32.529 14.2075 32.8491 14.5663L39.9312 22.4819" fill="white"/>
<path d="M42.636 54.2242C42.6001 54.2242 42.5614 54.2242 42.5228 54.2214C41.9956 54.1911 41.5126 53.9592 41.1621 53.5673L18.0833 27.7754C17.7328 27.3835 17.5534 26.8785 17.5838 26.3513C17.6141 25.8269 17.846 25.3439 18.2379 24.9906L30.884 13.6748C31.2759 13.3243 31.781 13.1476 32.3082 13.1752C32.8326 13.2056 33.3156 13.4374 33.6688 13.8293L40.7509 21.7449C41.1566 22.2003 41.118 22.8958 40.6653 23.3043C40.2127 23.71 39.5144 23.6714 39.106 23.2187L32.1812 15.4798L19.8883 26.4783L42.6525 51.9168L54.9454 40.9156L45.4456 30.2263C45.0399 29.7709 45.0813 29.0726 45.5367 28.6669C45.9921 28.2612 46.6903 28.3026 47.0961 28.758L56.7504 39.6212C57.0982 40.0104 57.2776 40.5182 57.2472 41.0426C57.2169 41.5697 56.985 42.0527 56.5931 42.4033L43.9469 53.7191C43.5854 54.0475 43.1217 54.2242 42.636 54.2242ZM55.1027 41.0923C55.1027 41.0923 55.1027 41.095 55.1027 41.0923V41.0923Z" fill="#197EFF"/>
<path d="M55.7985 11.0026L10.5343 56.3758L12.0975 57.9353L57.3617 12.5621L55.7985 11.0026Z" fill="#197EFF"/>
</g>
<defs>
<clipPath id="clip0">
<rect width="68" height="68" fill="white" transform="translate(0 0.0488281)"/>
</clipPath>
</defs>
</svg>
